<svg width="25" height="25" viewBox="0 0 25 25" fill="none" xmlns="http://www.w3.org/2000/svg">
<path d="M21.2419 13.545C20.5642 13.725 19.866 13.8161 19.1649 13.816C17.0299 13.816 15.0249 12.986 13.5189 11.48C12.5299 10.4854 11.8189 9.24887 11.4568 7.89381C11.0947 6.53874 11.094 5.11242 11.4549 3.75701C11.5 3.58755 11.4997 3.40921 11.4541 3.23988C11.4084 3.07056 11.3191 2.91621 11.195 2.79232C11.0709 2.66842 10.9164 2.57934 10.747 2.534C10.5776 2.48866 10.3993 2.48867 10.2299 2.53401C8.53304 2.9862 6.98494 3.87664 5.74088 5.11601C1.84288 9.01401 1.84288 15.359 5.74088 19.259C6.66741 20.1907 7.76952 20.9294 8.98342 21.4323C10.1973 21.9353 11.4989 22.1924 12.8129 22.189C14.1265 22.1927 15.4278 21.9357 16.6414 21.4329C17.855 20.9302 18.9567 20.1916 19.8829 19.26C21.1232 18.0157 22.014 16.4668 22.4659 14.769C22.5108 14.5996 22.5104 14.4214 22.4648 14.2522C22.4192 14.083 22.33 13.9287 22.2061 13.8048C22.0822 13.6809 21.9279 13.5917 21.7587 13.5461C21.5895 13.5005 21.4113 13.5001 21.2419 13.545ZM18.4699 17.846C17.7289 18.5911 16.8474 19.1818 15.8766 19.584C14.9057 19.9862 13.8647 20.1918 12.8139 20.189C11.7627 20.1916 10.7214 19.9858 9.75021 19.5835C8.77904 19.1811 7.89727 18.5903 7.15588 17.845C4.03788 14.726 4.03788 9.65001 7.15588 6.53101C7.75839 5.92918 8.45398 5.42843 9.21588 5.04801C9.10436 6.48707 9.30483 7.93325 9.80361 9.2877C10.3024 10.6422 11.0877 11.873 12.1059 12.896C13.1267 13.9174 14.3571 14.7049 15.7122 15.204C17.0672 15.7032 18.5144 15.9021 19.9539 15.787C19.5714 16.5476 19.0705 17.2426 18.4699 17.846Z" fill="#17181A"/>
</svg>
