<svg width="160" height="33" viewBox="0 0 160 33" fill="none" xmlns="http://www.w3.org/2000/svg">
<path d="M0.00267682 31.0901C0.0762876 30.4318 0.368054 30.0791 0.936865 29.8646C4.70708 28.4448 8.55759 28.127 12.5098 28.9087C14.6071 29.323 16.7204 29.6568 18.8149 30.0832C20.5722 30.4411 22.2719 30.1475 23.9784 29.7922C26.1158 29.3484 28.2491 28.8752 30.4401 28.7786C30.5498 28.7733 30.6837 28.784 30.7278 28.6633C30.7934 28.4877 30.6328 28.4354 30.5217 28.3764C30.167 28.19 29.8204 27.9742 29.4457 27.8414C28.5784 27.5331 28.1006 26.9271 27.8061 26.0676C27.4394 24.9977 27.3953 25.0125 26.3286 25.412C24.7212 26.0127 23.1151 26.616 21.5064 27.214C19.626 27.9138 17.6987 27.7744 15.7607 27.5599C13.8776 27.3521 12.0454 26.8171 10.1396 26.7528C7.37982 26.6589 4.6696 26.9807 1.99151 27.6296C1.75729 27.6859 1.51906 27.7302 1.29957 27.7771C1.11487 27.5974 1.2554 27.458 1.3076 27.3293C2.35287 24.7671 3.40885 22.209 4.44341 19.6428C4.58528 19.2929 4.86099 19.1293 5.14339 18.9631C6.25826 18.3074 7.37179 17.6505 8.50539 17.027C8.86542 16.8286 9.07822 16.5739 9.21875 16.1971C9.98162 14.1471 10.778 12.1092 11.5221 10.0525C11.7376 9.45723 12.0882 9.05367 12.653 8.81904C13.5792 8.43425 14.5067 8.05214 15.4369 7.67941C16.2827 7.3402 16.8127 6.73553 17.0697 5.86003C17.4725 4.48979 17.9356 3.13565 18.305 1.75737C18.4964 1.04141 18.8778 0.636508 19.5925 0.502434C19.9632 0.432716 20.3273 0.321434 20.6913 0.218198C21.6523 -0.0526318 22.4901 0.0345162 23.3948 0.612375C25.6915 2.07914 25.7169 2.02819 26.4276 4.74319C26.631 5.51948 26.896 6.27968 27.1222 7.04926C27.2989 7.65125 27.7191 8.02264 28.2491 8.30554C29.0629 8.73859 29.9449 8.98663 30.8135 9.26551C31.397 9.45187 31.8173 9.76962 32.0782 10.3555C32.6417 11.6185 33.2707 12.852 33.8422 14.1109C34.0363 14.5386 34.3133 14.7599 34.7697 14.8671C35.7012 15.0857 36.6167 15.3712 37.5442 15.6099C37.9229 15.7078 38.1505 15.9102 38.3004 16.2789C39.877 20.1684 41.4563 24.0552 43.0636 27.9313C43.2711 28.4314 43.1386 28.6606 42.7076 28.8698C41.0373 29.6796 39.2801 30.1167 37.4251 30.169C35.6169 30.2199 33.8128 30.1287 32.014 29.9772C29.1311 29.7346 26.3219 30.1127 23.5541 30.8983C21.6362 31.4427 19.7237 31.3368 17.8004 30.9171C15.5586 30.4277 13.3289 29.874 11.0537 29.5603C8.26582 29.1755 5.54222 29.5764 2.84941 30.2829C1.9112 30.5296 0.981031 30.8112 0 31.0901H0.00267682ZM21.7701 16.1207C21.7701 13.7315 21.7634 10.9401 21.7767 8.14867C21.7781 7.72231 21.7085 7.45283 21.228 7.32143C20.0891 7.00904 19.9994 6.89508 20.0342 5.68573C20.0717 4.34767 20.1787 3.01096 20.2523 1.67424C20.263 1.47983 20.3152 1.22107 20.0489 1.17951C19.804 1.14063 19.555 1.23046 19.4506 1.49994C19.4025 1.62329 19.3864 1.76005 19.3623 1.89144C18.566 6.37353 17.7161 10.8476 17.0041 15.3431C16.7672 16.8434 16.2399 17.9106 14.7181 18.3195C14.2751 18.4388 14.0931 18.7459 14.0021 19.183C13.5752 21.2128 13.1389 23.2414 12.6704 25.2632C12.5593 25.7405 12.7159 25.9363 13.1469 26.006C13.7411 26.1012 14.3367 26.187 14.9296 26.2822C17.0041 26.612 19.0531 26.6361 21.0513 25.8397C21.4823 25.6681 21.671 25.4522 21.6724 24.9615C21.6804 22.1487 21.6268 19.3345 21.7714 16.1194L21.7701 16.1207ZM22.7939 14.4555C22.8381 14.4555 22.8822 14.4555 22.9264 14.4555C22.9264 14.9462 22.9157 15.4369 22.9278 15.9276C22.9973 18.7606 23.0803 21.5936 23.1406 24.4279C23.1513 24.9669 23.344 25.0648 23.8419 24.928C25.3743 24.5057 26.8305 23.9238 28.1956 23.0993C29.0642 22.5737 29.0789 22.6018 28.8728 21.5815C27.9145 16.8367 26.9563 12.0918 25.998 7.34825C25.7544 6.1456 25.4948 4.94564 25.2699 3.73898C25.1428 3.06191 24.586 3.07129 24.1363 3.05788C23.6612 3.04448 23.8138 3.50837 23.8178 3.78859C23.8378 5.21647 23.8606 6.64436 23.9262 8.06957C23.9503 8.59379 23.8138 8.98395 23.3721 9.26014C22.9077 9.54974 22.7698 9.96269 22.7832 10.507C22.8167 11.8236 22.7939 13.1402 22.7939 14.4568V14.4555ZM31.1989 13.4486C31.1507 13.458 31.1026 13.4687 31.0557 13.4781C30.8202 12.8573 30.5806 12.2393 30.3504 11.6172C29.9319 10.4865 29.1289 9.82459 27.9413 9.63153C27.8972 9.62482 27.853 9.61678 27.8102 9.60739C27.3538 9.50282 27.1891 9.66236 27.2922 10.1343C28.1367 13.9661 28.9759 17.8006 29.8097 21.6352C29.8873 21.9918 30.0774 22.1272 30.4227 22.0776C32.0956 21.8323 33.7686 21.5882 35.4402 21.3402C35.8645 21.2772 35.9917 21.1136 35.7869 20.6645C35.0816 19.1253 34.4244 17.5633 33.7405 16.0134C33.2814 14.9744 32.7996 13.9447 32.3473 12.9016C32.192 12.5436 31.9551 12.3573 31.575 12.4216C31.207 12.4833 31.2859 12.8171 31.2431 13.0665C31.2217 13.1925 31.215 13.3199 31.2016 13.4473L31.1989 13.4486ZM11.1474 25.5716C11.7202 25.6829 11.7362 25.2458 11.8246 24.8811C12.8297 20.765 13.8362 16.649 14.8373 12.5329C15.1116 11.4067 15.3472 10.2711 15.6403 9.1502C15.7621 8.68362 15.5867 8.63938 15.2147 8.71982C14.8707 8.79491 14.5977 8.93568 14.4545 9.295C14.2979 9.68784 14.0744 10.0552 13.9298 10.4521C13.7652 10.9052 13.4975 11.2069 13.0238 11.3369C12.2207 11.5582 11.7791 12.1159 11.5368 12.9002C11.241 13.8589 10.889 14.8001 10.5558 15.7466C10.1971 16.7656 10.1717 16.7964 11.0483 17.4333C11.5074 17.7671 11.5877 18.0983 11.4485 18.6212C10.9653 20.4312 10.5183 22.2506 10.07 24.0686C9.71796 25.4898 9.72599 25.4925 11.1487 25.5702L11.1474 25.5716ZM7.08805 20.757C7.14426 20.3708 7.19646 20.0424 7.24062 19.7139C7.26605 19.5235 7.21653 19.254 6.99838 19.3854C6.3399 19.7836 5.45523 19.8372 5.12063 20.7422C4.54245 22.3096 3.91609 23.8594 3.26832 25.4C3.03946 25.9456 3.19471 26.0985 3.71935 26.0395C5.26652 25.8665 6.81368 25.6829 8.36219 25.5153C8.67135 25.4817 8.844 25.3436 8.9243 25.0447C9.51988 22.8526 10.1195 20.6604 10.7258 18.471C10.8302 18.0943 10.6374 17.8932 10.3671 17.6934C10.0981 17.495 9.87857 17.4909 9.58412 17.6773C8.53617 18.3437 7.53105 19.0274 7.34502 20.4017C7.32896 20.521 7.30085 20.6712 7.08805 20.7556V20.757ZM37.8373 23.7227C37.7945 23.7938 37.7516 23.8648 37.7075 23.9359C37.5147 23.9734 37.3233 24.0177 37.1293 24.0458C34.6841 24.4078 32.2375 24.7631 29.7923 25.1291C28.7042 25.2914 28.6292 25.4817 29.1673 26.4216C29.3493 26.7407 29.6049 26.7675 29.9034 26.7327C30.4561 26.6696 31.0089 26.5946 31.5616 26.5275C33.6856 26.2741 35.811 26.0382 37.9323 25.7606C38.4824 25.6882 38.5774 25.8732 38.5265 26.372C38.4677 26.9472 38.4837 27.5317 38.4891 28.1123C38.4944 28.7089 38.8839 28.9516 39.3416 28.5775C40.2116 27.8683 40.87 26.978 40.8152 25.7834C40.7375 24.0954 38.4636 22.0883 36.7492 22.1393C36.6167 22.1433 36.4654 22.1272 36.4146 22.2894C36.3651 22.4477 36.5002 22.5294 36.5953 22.6152C37.0075 22.9866 37.4224 23.354 37.8373 23.7227ZM14.4357 17.3006C14.4076 17.6626 14.4572 17.8503 14.8747 17.684C15.6804 17.3636 16.3309 16.9359 16.4714 15.9839C16.5531 15.4342 16.7204 14.8993 16.8207 14.3523C17.2035 12.2728 17.5742 10.1906 17.9503 8.10979C17.9811 7.93683 18.0601 7.74377 17.8647 7.62712C17.6853 7.5212 17.5194 7.64321 17.3681 7.72768C16.9318 7.97437 16.7498 8.41414 16.5691 8.84585C16.2332 9.65164 16.0565 10.5043 15.8504 11.3477C15.3659 13.3373 14.9002 15.3323 14.4331 17.3006H14.4357ZM35.1793 16.0577C34.6252 16.059 34.9022 16.4277 35.008 16.6691C35.5888 17.9951 36.1884 19.3117 36.78 20.6336C36.9125 20.9286 37.1025 21.1552 37.4023 21.3013C38.0233 21.6016 38.6336 21.9221 39.2519 22.2291C39.3831 22.2948 39.5263 22.4463 39.6722 22.3096C39.8141 22.1755 39.6896 22.0186 39.6294 21.8805C39.0726 20.5921 38.3994 19.3398 37.9872 18.0071C37.5415 16.5658 36.4253 16.3272 35.1806 16.0577H35.1793ZM20.2564 5.11189C20.2764 5.11189 20.2965 5.11324 20.3166 5.11458C20.3166 5.49266 20.2911 5.87209 20.3219 6.2475C20.3755 6.88569 20.872 7.03183 21.3752 7.0372C21.944 7.04256 21.7393 6.54649 21.7888 6.23141C21.8637 5.75545 21.6148 5.21111 21.944 4.81023C22.1729 4.53135 22.1702 4.29673 22.0792 4.02187C21.8223 3.24961 21.7674 2.45857 21.7821 1.65279C21.7875 1.35917 21.8557 0.962308 21.3712 0.978397C20.9416 0.993145 20.5401 1.04275 20.5106 1.65547C20.4571 2.80985 20.3447 3.9602 20.2577 5.11324L20.2564 5.11189ZM37.8587 27.6189C37.8587 27.4406 37.8426 27.2609 37.8614 27.0853C37.9336 26.427 37.6138 26.2983 37.0249 26.3666C35.6611 26.5262 35.6584 26.5074 35.9314 27.8468C35.9676 28.0211 35.9943 28.1967 36.0345 28.371C36.0907 28.6151 36.2366 28.729 36.4976 28.7679C37.7195 28.9502 37.8881 28.8162 37.8587 27.6189ZM34.494 28.7759C35.6785 28.7692 35.7882 29.024 35.463 27.5492C35.4242 27.3749 35.3921 27.1992 35.3599 27.0249C35.3144 26.7729 35.1712 26.6013 34.9102 26.6241C34.4231 26.667 33.9386 26.7394 33.4554 26.8077C33.3403 26.8238 33.2319 26.9083 33.2493 27.0316C33.3229 27.5813 33.2948 28.1739 33.6 28.6472C33.8061 28.9677 34.2237 28.7424 34.494 28.7759ZM23.6679 7.03183C23.6639 6.38828 23.7254 5.74338 23.625 5.10117C23.601 4.94698 23.6076 4.77403 23.4136 4.72978C23.2771 4.69895 23.1513 4.7566 23.0469 4.85045C22.8782 5.00061 22.3295 7.0077 22.4821 7.14177C22.9746 7.57617 22.7605 8.12185 22.8033 8.62865C22.8153 8.77748 22.7578 8.96384 22.9385 9.04026C23.1191 9.11534 23.2115 8.94239 23.3306 8.85256C23.5581 8.68094 23.6813 8.46642 23.6706 8.16878C23.6572 7.79069 23.6679 7.41126 23.6679 7.03317V7.03183ZM31.8293 26.9525C31.488 26.9914 30.8911 27.0598 30.2969 27.1309C30.1831 27.1443 30.06 27.1858 30.0506 27.3105C30.0466 27.3722 30.1322 27.4741 30.1992 27.5009C31.0249 27.8294 31.8534 28.1512 32.6832 28.4676C32.8184 28.5199 32.9388 28.4904 33.0031 28.3295C33.2239 27.7677 32.6631 26.915 31.8293 26.9525ZM34.9504 23.7911C35.2663 23.7428 35.6142 23.6892 35.9636 23.6369C36.3892 23.5725 36.3945 23.3647 36.2018 23.0362C35.8123 22.3699 34.581 22.1232 33.9761 22.6059C33.9051 22.6635 33.8583 22.7225 33.8677 22.8271C33.8984 23.1609 34.5864 23.8005 34.9504 23.7911ZM32.6163 24.2067C32.9469 24.1504 33.3216 24.0941 33.6923 24.0203C33.8677 23.9855 33.9988 23.8474 33.8958 23.6811C33.6789 23.3299 33.5384 22.8123 33.1008 22.756C32.6096 22.693 32.0849 22.8043 31.6152 23.0309C31.5737 23.051 31.5469 23.1422 31.5442 23.2011C31.5335 23.5055 32.2522 24.2027 32.6163 24.2067ZM28.917 24.6183C28.9411 24.684 28.9652 24.7497 28.9906 24.8154C29.72 24.6947 30.4521 24.5848 31.1789 24.448C31.3743 24.4105 31.7236 24.3569 31.5322 24.0485C31.3555 23.7656 31.2324 23.1743 30.772 23.3929C30.1095 23.7079 29.5313 24.2013 28.917 24.617V24.6183Z" fill="#17181A"/>
<path d="M35.4992 31.8918C38.208 32.0085 40.8834 31.7175 43.5093 31.0592C44.1009 30.9117 44.3365 31.0766 44.4583 31.5982C44.6001 32.2056 44.0581 32.105 43.7851 32.1841C40.668 33.0958 37.5054 33.0904 34.3241 32.5984C33.8837 32.53 33.4447 32.4603 33.0071 32.3785C32.805 32.341 32.4704 32.3852 32.5253 32.0661C32.5748 31.7792 32.8853 31.8932 33.0954 31.8918C33.8971 31.8891 34.6975 31.8918 35.4992 31.8918Z" fill="#17181A"/>
<path d="M3.39819 32.3867C4.88513 31.7619 6.37475 31.2832 7.94199 31.0674C10.2815 30.7456 12.4202 31.5956 14.5857 32.2553C14.7289 32.2982 15.0541 32.274 14.9872 32.5811C14.9176 32.9015 14.6647 32.8868 14.401 32.8264C13.0318 32.5181 11.656 32.2378 10.2614 32.0796C8.13739 31.8396 6.04149 32.1561 3.94559 32.4443C3.78231 32.4671 3.61367 32.5797 3.39953 32.3853L3.39819 32.3867Z" fill="#17181A"/>
<path d="M95.3126 14.2584C94.699 15.9095 94.1995 17.3015 93.6619 18.6841C92.7415 21.063 91.7994 23.4325 92.1795 26.0139C92.242 26.4402 92.1904 26.9914 91.5252 26.989C90.8872 26.9867 91.0094 26.4331 91.0094 26.0704C91.0229 19.3648 91.0474 12.6592 91.08 5.95354C91.08 5.52722 91.0582 4.9643 91.7533 5.00434C92.3723 5.04202 92.223 5.60259 92.223 5.9606C92.2257 9.37112 92.1985 12.784 92.1985 16.1945C92.1985 16.6891 92.0465 17.205 92.4049 17.7679C92.9832 17.5253 93.0293 17.0377 93.1759 16.6303C93.9904 14.3456 94.8049 12.0633 95.5841 9.76918C95.9995 8.54205 95.7008 7.27253 95.7986 6.0242C95.8312 5.62615 95.6248 5.01847 96.3362 4.99021C97.1724 4.95723 96.9823 5.61437 96.9796 6.0454C96.9307 12.6709 96.8683 19.2965 96.8004 25.9197C96.795 26.3248 96.928 26.9513 96.2656 26.9584C95.5108 26.9655 95.6384 26.306 95.6411 25.8655C95.6601 22.5728 95.7063 19.28 95.7307 15.9873C95.7334 15.528 95.8637 15.0498 95.3126 14.2584Z" fill="#17181A"/>
<path d="M141.999 15.9696C141.999 19.7087 141.999 22.9734 141.999 26.2406C141.999 26.5625 142.006 26.8868 141.981 27.2062C141.957 27.4967 141.874 27.8113 141.548 27.8282C141.141 27.85 141.078 27.487 141.039 27.1603C141.016 26.9618 141.025 26.7585 141.023 26.5552C141.007 21.4342 140.997 16.3132 140.967 11.1922C140.96 9.7813 140.872 8.37278 140.856 6.96427C140.847 6.23581 140.525 5.95507 139.857 5.97201C139.105 5.99137 139.049 6.42458 139.051 7.09496C139.07 12.8936 139.412 18.7067 138.413 24.4642C138.239 25.471 137.931 26.4221 137.334 27.2329C136.772 27.9976 136.004 28.1694 135.162 27.8064C134.421 27.4894 133.989 26.9086 134 26.0373C134.003 25.7953 134.023 25.5291 134.289 25.4371C134.562 25.3403 134.743 25.5315 134.831 25.759C135.055 26.3471 135.314 26.9594 136.032 26.7948C136.703 26.6423 136.964 25.9671 137.14 25.3524C137.781 23.0944 137.89 20.7542 138.026 18.4212C138.262 14.3892 138.036 10.3573 138.026 6.32777C138.024 5.32826 138.336 4.97492 139.294 4.98944C142.233 5.033 141.879 4.78131 141.893 7.73387C141.907 10.6356 141.839 13.5398 141.999 15.9671V15.9696Z" fill="#17181A"/>
<path d="M59.9948 16.0231C59.9948 19.135 59.9948 22.2446 59.9948 25.3565C59.9948 25.7025 59.9896 26.0485 59.9584 26.3923C59.9377 26.6345 59.8156 26.8536 59.4962 26.8513C59.2027 26.8513 58.995 26.6622 58.9482 26.4338C58.8781 26.097 58.8781 25.7463 58.8781 25.4026C58.8703 19.3726 58.8703 13.3426 58.8573 7.31254C58.8573 6.7566 59.0131 6.12453 58.0029 6.0461C56.9382 5.96536 56.681 6.39212 56.6888 7.26179C56.7278 10.872 56.7434 14.4821 56.6888 18.0923C56.6577 20.1661 56.3876 22.2308 55.8448 24.2538C55.6111 25.1212 55.2631 25.9447 54.4762 26.5584C53.8088 27.0797 53.0505 27.0843 52.2895 26.8029C51.565 26.5353 51.1105 26.0439 51.0196 25.3219C50.9807 25.0012 50.9573 24.6714 51.3832 24.5629C51.7442 24.4707 51.9493 24.7175 52.0558 24.9782C52.2584 25.4811 52.5415 25.9355 53.2141 25.8894C53.9023 25.8409 54.2217 25.3404 54.4373 24.8213C55.3462 22.6252 55.4371 20.3161 55.5773 18.0185C55.8111 14.1823 55.5228 10.3437 55.5773 6.50515C55.5955 5.18335 55.8111 5.00573 57.3381 4.98958C57.7276 4.98496 58.1172 5.01034 58.5041 5.00342C59.5403 4.98266 59.9559 5.41403 59.9455 6.34368C59.9091 9.57092 59.9325 12.7959 59.9325 16.0231C59.9559 16.0231 59.9792 16.0231 60 16.0231H59.9948Z" fill="#17181A"/>
<path d="M127.044 15.6116C127.185 12.7938 126.682 9.94334 127.386 7.14648C127.651 6.09387 128.238 5.26716 129.472 5.04825C130.946 4.78743 131.963 5.39058 132.44 6.80415C132.639 7.391 132.741 8.01978 132.774 8.63457C133.044 13.7136 133.128 18.7927 132.708 23.8671C132.639 24.6985 132.369 25.4647 131.777 26.1167C130.665 27.3463 128.998 27.2671 128.034 25.9351C127.22 24.8149 127.126 23.5085 127.07 22.244C126.973 20.0363 127.042 17.8216 127.042 15.6116H127.044ZM131.818 15.8608C131.818 15.8608 131.797 15.8608 131.787 15.8608C131.787 13.7299 131.815 11.5991 131.774 9.4706C131.757 8.588 131.711 7.68676 131.275 6.8647C130.999 6.34305 130.584 5.96579 129.9 5.99374C129.214 6.01935 128.834 6.43853 128.612 6.97415C128.36 7.59128 128.225 8.23402 128.179 8.89773C127.873 13.3876 128.054 17.8775 128.194 22.3651C128.225 23.3268 128.357 24.3073 128.85 25.1852C129.393 26.154 130.382 26.1843 131.025 25.2667C131.642 24.3864 131.79 23.3781 131.805 22.3674C131.841 20.1993 131.815 18.0289 131.815 15.8608H131.818Z" fill="#17181A"/>
<path d="M73.9887 15.925C73.9887 19.2907 73.9931 22.6586 73.9822 26.0243C73.9822 26.3792 74.1224 26.955 73.6161 26.9714C73.0529 26.9879 73.1318 26.3909 73.1274 25.982C73.0945 23.2439 73.0551 20.5034 73.0638 17.7653C73.066 16.8699 72.8863 16.4045 71.911 16.4233C70.0458 16.4609 69.9296 16.4492 69.9296 17.7183C69.9296 20.2613 69.9888 22.8044 70.0239 25.3474C70.0282 25.6224 70.0282 25.895 70.0195 26.17C70.0063 26.5272 69.9866 26.9644 69.5724 26.9879C69.0573 27.0161 69.0989 26.5061 69.0529 26.1347C69.0288 25.942 69.0332 25.7446 69.0332 25.5495C69.0222 19.1309 69.0113 12.7122 69.0025 6.29353C69.0025 6.17601 68.9937 6.05615 69.0091 5.94098C69.0551 5.58374 68.8863 5.03613 69.4145 5.01497C69.9713 4.99147 69.8354 5.56259 69.8419 5.90573C69.8858 7.97869 69.9011 10.054 69.9208 12.1293C69.9252 12.5994 69.9099 13.0694 69.9099 13.5395C69.9165 15.3892 69.9208 15.3093 71.6677 15.415C72.8227 15.4855 73.0945 15.0343 73.0616 13.8756C72.9893 11.255 73.0353 8.63207 73.0397 6.00914C73.0397 5.60489 72.8644 4.99852 73.4474 4.98912C74.0742 4.97971 73.9646 5.62135 73.9646 6.07025C73.9712 9.35832 73.969 12.6464 73.969 15.9344C73.9778 15.9344 73.9866 15.9344 73.9953 15.9344L73.9887 15.925Z" fill="#17181A"/>
<path d="M77.0186 15.4548C77.0186 13.3228 77.0211 11.1931 77.0186 9.06117C77.0186 8.19535 77.2054 7.35746 77.525 6.56146C77.9675 5.46289 78.85 4.93921 80.1086 4.99274C81.35 5.04627 81.8982 5.80736 82.1882 6.8105C82.3947 7.52504 82.4144 8.26517 82.3652 9.00298C82.3455 9.32417 82.289 9.65934 81.8539 9.66865C81.3967 9.67795 81.3672 9.3172 81.3573 9.00764C81.3328 8.31172 81.3524 7.6158 81.0869 6.94316C80.878 6.41249 80.5191 6.07967 79.9242 6.0657C79.349 6.05174 78.8942 6.3194 78.6435 6.8198C78.287 7.52969 78.1371 8.2931 78.1027 9.07281C77.8962 13.6417 77.9036 18.2105 78.1101 22.7793C78.1469 23.566 78.3338 24.3062 78.7074 25.0114C78.9876 25.5421 79.4227 25.8795 80.0397 25.9051C80.7305 25.9331 81.1877 25.5374 81.4827 24.9858C81.8195 24.3527 81.9596 23.6754 81.9227 22.9609C81.9031 22.5931 82.0555 22.1975 82.498 22.2091C82.9626 22.2207 83.0216 22.6304 82.9945 23.0005C82.9183 24.0501 82.7856 25.0929 82.1096 25.9773C81.0452 27.3668 78.968 27.3156 77.965 25.8819C77.2079 24.7996 77.0825 23.5404 77.0407 22.3115C76.9645 20.0283 77.0186 17.7403 77.0186 15.4548Z" fill="#17181A"/>
<path d="M145.033 16.4064C145.033 13.0912 145.09 9.77365 145.001 6.46089C144.97 5.31499 145.497 4.94504 146.733 4.99309C147.536 5.02192 148.342 4.99309 149.145 5.02192C149.53 5.03633 149.963 5.13002 149.985 5.524C150.008 5.92758 149.584 6.01167 149.196 6.06211C149.103 6.07413 149.009 6.06932 148.912 6.07653C146.309 6.28072 146.286 6.28072 146.297 8.53407C146.323 12.7285 146.397 16.9229 146.4 21.1197C146.4 22.0374 146.636 22.5467 147.889 22.5082C149.325 22.465 150.373 23.1112 150.797 24.2475C151.199 25.3309 151.053 26.448 149.914 27.2023C148.735 27.9831 147.34 28.1896 145.881 27.7909C145.104 27.5771 145.221 26.9909 145.221 26.4792C145.215 23.1232 145.221 19.7672 145.221 16.4112C145.158 16.4112 145.095 16.4112 145.033 16.4112V16.4064ZM146.391 25.0883C146.665 25.6985 145.847 26.8035 147.465 26.8612C148.704 26.9044 149.723 26.0804 149.706 25.1267C149.689 24.185 148.798 23.5052 147.553 23.4547C145.97 23.3899 146.571 24.4036 146.391 25.0883Z" fill="#17181A"/>
<path d="M113.015 16.572C113.049 13.4987 112.968 10.7008 113.314 7.91222C113.533 6.14572 114.645 5.07929 116.261 4.99528C117.628 4.92294 118.475 5.48065 118.934 6.48641C119.325 7.34049 119.214 8.24825 119.174 9.13967C119.163 9.37536 119.082 9.63438 118.735 9.65538C118.333 9.67872 118.168 9.4337 118.129 9.13733C118.045 8.48161 118 7.82355 117.897 7.17015C117.804 6.57743 117.41 6.13172 116.686 6.03604C115.898 5.93336 115.355 6.32074 115.009 6.87146C114.519 7.65086 114.486 8.51194 114.419 9.36602C114.064 13.9468 114.055 18.5275 114.503 23.106C114.575 23.848 114.724 24.5691 115.213 25.2132C115.917 26.1419 117.173 26.2003 117.961 25.3182C118.571 24.6368 118.71 23.8247 118.794 23.0056C118.831 22.6533 118.853 22.2169 119.412 22.2402C120.052 22.2682 120.022 22.7326 119.982 23.127C119.89 24.0207 119.694 24.8841 119.197 25.7032C118.674 26.5573 117.891 26.989 116.756 26.989C115.652 26.989 114.788 26.646 114.204 25.8246C113.639 25.0335 113.351 24.1818 113.312 23.2787C113.211 20.9498 112.926 18.6256 113.018 16.5697L113.015 16.572Z" fill="#17181A"/>
<path d="M84.0053 15.9001C84.0053 12.6111 83.9972 9.3222 84.0161 6.03326C84.0161 5.64037 83.8542 5.03105 84.5583 5.00987C85.3083 4.98635 85.0979 5.60038 85.1248 5.99327C85.1599 6.50143 85.1221 7.01194 85.1383 7.52011C85.1491 7.85418 84.9873 8.29411 85.4998 8.42821C85.9315 8.54113 86.2552 8.23765 86.5439 7.99298C87.2453 7.39777 87.5798 6.63318 87.7768 5.81682C87.8685 5.43805 87.8604 4.91342 88.4782 4.99811C89.2201 5.09692 88.9314 5.65684 88.8613 6.04737C88.5834 7.64479 87.8172 8.97872 85.9773 9.59039C85.3515 9.79742 85.1653 10.115 85.168 10.642C85.1842 13.9709 85.2031 17.2999 85.1896 20.6288C85.1869 21.5393 85.4621 22.1133 86.5682 22.4756C88.2165 23.0144 89.2821 25.0047 88.9341 26.468C88.8774 26.7079 88.7992 26.9573 88.4917 26.9855C88.1005 27.0232 87.9575 26.7479 87.882 26.4703C87.7444 25.9763 87.6311 25.4775 87.5043 24.9811C87.3694 24.4612 87.0187 24.066 86.5601 23.7295C86.2795 23.5249 85.98 23.3037 85.5997 23.419C85.1572 23.5531 85.2651 23.9295 85.2597 24.2283C85.2489 24.8941 85.2759 25.5599 85.2597 26.2257C85.2516 26.5785 85.2193 27.0138 84.6662 26.9808C84.2265 26.9526 84.1968 26.555 84.1914 26.2398C84.159 24.44 84.1267 22.6379 84.1105 20.8382C84.097 19.1937 84.1078 17.5493 84.1078 15.9048C84.0727 15.9048 84.0403 15.9048 84.0053 15.9048V15.9001Z" fill="#17181A"/>
<path d="M62.0196 15.893C62.0196 12.6876 62.0529 9.48218 62.0006 6.27907C61.9839 5.31651 62.3123 4.92917 63.2901 4.99643C63.9991 5.04514 64.7152 5.01266 65.4266 5.03818C65.7145 5.04746 66 5.14488 66 5.49279C66 5.85925 65.6907 5.88245 65.4123 5.91956C65.3743 5.9242 65.3338 5.92419 65.2934 5.92883C62.9784 6.21412 62.9665 6.21412 62.9832 8.53354C62.9975 10.4633 63.076 12.393 63.057 14.3228C63.0474 15.181 63.3567 15.4779 64.2323 15.4639C64.7938 15.4547 65.8192 15.2088 65.7692 16.0136C65.7216 16.7605 64.7509 16.4543 64.1609 16.3987C63.3972 16.3268 63.0641 16.5935 63.0736 17.3612C63.0998 19.9103 63.1117 22.4593 63.0831 25.006C63.0736 25.7714 63.3853 26.0567 64.1323 26.0266C64.5654 26.008 65.0031 26.0335 65.4361 26.066C65.7216 26.0869 66.0048 26.1657 65.9929 26.5275C65.9833 26.8082 65.7692 26.952 65.5242 26.9566C64.5749 26.9729 63.6184 27.0309 62.6787 26.9358C62.003 26.8685 62.0553 26.2446 62.0553 25.7389C62.0553 22.457 62.0553 19.175 62.0553 15.893C62.0434 15.893 62.0315 15.893 62.0196 15.893Z" fill="#17181A"/>
<path d="M100.829 21.169C100.829 22.4038 100.857 23.641 100.818 24.8735C100.793 25.6658 101.007 25.9531 101.626 25.9994C102.09 26.0318 102.944 25.6056 102.927 26.5438C102.915 27.2991 102.083 26.8381 101.623 26.9539C101.451 26.9979 101.264 26.9307 101.089 26.9585C100.241 27.0975 100.027 26.5624 100.032 25.5384C100.052 21.1389 100.018 16.7371 100.007 12.3376C100.002 10.2525 100.029 8.16749 100 6.08474C99.9896 5.27852 100.229 4.95881 100.834 4.99124C101.398 5.02136 101.964 4.99124 102.529 5.00514C102.792 5.00977 103.029 5.14183 102.997 5.53568C102.97 5.8716 102.715 5.87623 102.508 5.90172C102.478 5.90635 102.449 5.90172 102.419 5.90404C100.686 6.10559 100.638 6.11022 100.73 8.43623C100.809 10.4055 100.816 12.37 100.804 14.337C100.798 15.12 100.964 15.5208 101.607 15.4142C101.724 15.3957 101.846 15.398 101.964 15.4119C102.305 15.4467 102.817 15.3123 102.81 15.9355C102.803 16.5749 102.276 16.4058 101.951 16.4058C100.793 16.4058 100.796 16.3896 100.805 17.9256C100.812 19.0075 100.805 20.0871 100.805 21.169C100.812 21.169 100.82 21.169 100.829 21.169Z" fill="#17181A"/>
<path d="M152.045 16.139C152.045 12.8172 152.036 9.49305 152.057 6.17131C152.057 5.73603 151.746 5.01137 152.579 4.98949C153.426 4.9676 153.151 5.70928 153.156 6.12997C153.229 11.0323 153.299 15.9371 153.299 20.8395C153.299 21.9143 153.574 22.4566 155.037 22.5077C156.961 22.5758 157.985 23.5947 158 25.0999C158.014 26.6538 157.074 27.5997 155.223 27.8696C154.796 27.9329 154.361 27.9718 153.925 27.9864C152.683 28.0277 152.062 27.59 152.074 26.4738C152.115 23.0305 152.089 19.5847 152.089 16.1414C152.074 16.1414 152.057 16.1414 152.042 16.1414L152.045 16.139ZM153.328 25.0075C153.38 26.7656 153.47 26.914 154.407 26.9188C155.757 26.9237 156.677 26.1601 156.677 25.0342C156.677 24.0859 155.597 23.3539 154.28 23.4342C152.829 23.5217 153.516 24.4895 153.328 25.0075Z" fill="#17181A"/>
<path d="M122.485 16.4904C122.485 13.4622 122.456 10.4364 122.503 7.40831C122.519 6.46581 122.302 5.89424 121.063 6.00388C120.64 6.04121 120.036 6.05055 120.002 5.55597C119.962 4.94241 120.621 5.01006 121.079 5.00307C122.445 4.98207 123.808 4.98674 125.174 5.00307C125.579 5.00773 126.037 5.08938 125.998 5.55363C125.966 5.92223 125.548 6.04355 125.193 6.00622C123.803 5.86158 123.642 6.53812 123.652 7.54828C123.708 13.4482 123.708 19.3482 123.729 25.2458C123.729 25.5165 123.755 25.7917 123.729 26.06C123.692 26.4193 123.869 26.9699 123.252 26.9885C122.612 27.0072 122.58 26.4706 122.58 26.0367C122.569 23.4355 122.569 20.8366 122.567 18.2354C122.567 17.6522 122.567 17.0713 122.567 16.488C122.54 16.488 122.517 16.488 122.49 16.488L122.485 16.4904Z" fill="#17181A"/>
<path d="M159.999 21.0452C159.999 22.7361 160.001 24.4246 159.999 26.1155C159.999 26.4844 160.029 26.9498 159.566 26.9869C159.1 27.0241 159.03 26.5537 159.028 26.1947C159.005 22.6916 159 19.1884 159 15.6853C159 15.3461 159.118 14.95 159.496 14.9921C159.909 15.0391 159.969 15.4476 159.967 15.8512C159.957 17.5817 159.962 19.3147 159.962 21.0452C159.973 21.0452 159.985 21.0452 159.999 21.0452Z" fill="#17181A"/>
<path d="M53 15.404C52.9335 15.7612 52.6392 15.98 51.965 15.9888C51.3335 15.9963 51.0439 15.8027 51.0035 15.487C50.9608 15.1424 51.3074 14.9878 51.9222 14.989C52.4825 14.989 52.924 15.0871 52.9976 15.404H53Z" fill="#17181A"/>
<path d="M109 15.3952C108.943 15.7706 108.598 15.9672 107.955 15.9875C107.312 16.009 107.033 15.8011 107.002 15.4878C106.971 15.1556 107.283 14.9691 107.919 14.9907C108.442 15.0072 108.953 15.0579 108.998 15.3952H109Z" fill="#17181A"/>
<path d="M160 5.95445C159.92 6.48722 159.724 6.95465 159.075 6.98732C158.439 7.01999 158.095 6.57518 158.013 6.03235C157.914 5.37644 158.398 5.07989 158.954 5.00199C159.593 4.91152 159.896 5.30104 160 5.95696V5.95445Z" fill="#17181A"/>
<path d="M109 25.8217C108.962 26.5782 108.555 26.9662 107.887 26.9883C107.333 27.008 107.037 26.6175 107.004 26.0698C106.963 25.4018 107.245 25.0015 107.949 24.9892C108.538 24.9818 108.924 25.198 108.998 25.8217H109Z" fill="#17181A"/>
<path d="M108.005 4.98901C108.691 5.0119 108.976 5.4417 108.998 5.96814C109.026 6.57597 108.728 7.01339 108.03 6.98796C107.395 6.96507 106.993 6.65481 107 5.99866C107.008 5.3298 107.503 5.09837 108.005 4.98901Z" fill="#17181A"/>
<path d="M53 5.90243C52.9564 6.61918 52.6614 7.00112 52.0559 6.98872C51.3453 6.97632 50.9733 6.5299 51.0015 5.86523C51.0271 5.27497 51.5146 5.00464 52.0456 4.98975C52.7332 4.96743 52.959 5.45353 53 5.90243Z" fill="#17181A"/>
</svg>
