<svg width="100" height="33" viewBox="0 0 100 33" fill="none" xmlns="http://www.w3.org/2000/svg">
<path d="M17.7173 23.831C17.7105 23.2038 18.2761 22.805 18.8029 23.0114C19.5851 23.3184 20.3605 23.6443 21.1397 23.9612C22.448 24.4935 23.7608 25.0119 25.0623 25.563C25.4773 25.7382 26.0049 25.8152 26.0642 26.4678C26.1067 26.9321 25.8179 27.2515 25.6324 27.6151C25.5655 27.7453 25.4918 27.8738 25.4066 27.9909C24.9497 28.6256 25.1527 28.6125 25.5625 29.0416C25.9334 29.4297 26.331 29.7884 26.7164 30.161C27.1163 30.5475 27.149 30.979 26.8168 31.4474C26.7711 31.5121 26.7347 31.5858 26.683 31.6456C26.0094 32.4251 25.7388 32.5291 24.9984 31.7348C24.6153 31.3238 24.1417 31.0241 23.7775 30.5868C23.6164 30.3927 23.4301 30.4353 23.2408 30.5966C22.8075 30.9659 22.3796 31.3459 21.8832 31.621C21.4103 31.8831 21.0941 31.8208 20.8371 31.3107C20.549 30.7383 20.3119 30.1356 20.0602 29.5435C19.6611 28.6043 19.2643 27.6642 18.8728 26.7217C18.5117 25.8529 18.1583 24.9807 17.8048 24.1095C17.7599 23.9989 17.7333 23.8802 17.7189 23.831H17.7173Z" fill="#FAD806"/>
<path d="M10.5354 22.3963C10.5496 22.6589 10.4632 22.9099 10.361 23.164C10.0607 23.9132 9.7849 24.6716 9.48851 25.4223C9.03839 26.5642 8.58193 27.7037 8.1223 28.841C8.02245 29.0889 7.95509 29.3453 7.82196 29.5863C7.52161 30.1276 6.98749 30.2916 6.42484 29.9574C4.75591 28.9657 3.33581 27.7138 2.2216 26.1438C2.06866 25.9282 1.98862 25.6826 1.94583 25.4362C1.87767 25.0466 2.12572 24.7817 2.69471 24.5307C4.36205 23.7954 6.02544 23.0516 7.69199 22.314C8.24276 22.0699 8.78797 21.8135 9.35063 21.6002C9.98381 21.36 10.6233 21.6841 10.5354 22.3971V22.3963Z" fill="#FAD806"/>
<path d="M13.0161 31.5444C12.2595 31.6254 11.4422 31.4528 10.6257 31.3233C9.90134 31.209 9.67957 30.81 9.91823 30.1226C10.1868 29.3496 10.4853 28.5872 10.7769 27.8225C11.2128 26.6823 11.6532 25.5437 12.0937 24.405C12.2288 24.056 12.3692 23.7085 12.5081 23.3609C12.6362 23.0399 12.914 22.9529 13.221 22.9567C13.541 22.9612 13.785 23.1293 13.9154 23.4147C14.481 24.6518 15.0074 25.9063 15.6044 27.1275C16.0303 27.9989 16.3733 28.9067 16.823 29.7668C17.1921 30.4731 16.9803 30.9039 16.2244 31.128C15.2008 31.4324 14.1618 31.5702 13.0161 31.5444Z" fill="#FAD806"/>
<path d="M10.5415 15.6967C10.5392 16.2776 10.1468 16.6211 9.61425 16.4605C8.98064 16.2696 8.36427 16.0179 7.74399 15.7813C6.59974 15.3451 5.4602 14.8952 4.31518 14.4613C3.73092 14.24 3.14431 14.0147 2.57493 13.7646C1.91705 13.4753 1.77529 13.0614 2.10814 12.4709C2.94381 10.9911 4.01051 9.72625 5.33646 8.6843C5.60352 8.47416 5.8518 8.24404 6.14393 8.06425C6.66553 7.74384 7.20593 7.87089 7.4542 8.42781C8.2883 10.2992 9.10987 12.1761 9.93692 14.0506C10.092 14.4022 10.2525 14.7506 10.4068 15.1022C10.4922 15.2979 10.5556 15.5001 10.5415 15.6967Z" fill="#FAD806"/>
<path d="M12.92 15.0643C12.5567 15.0817 12.3474 14.8644 12.2081 14.5796C11.8909 13.9345 11.5838 13.2848 11.2852 12.6313C10.6078 11.1509 9.96437 9.65536 9.25239 8.19163C8.90064 7.46772 9.23161 7.0255 9.84199 6.86951C11.2044 6.52194 12.5844 6.39397 13.9892 6.48483C14.5018 6.51815 15.0021 6.62416 15.5086 6.68853C16.1074 6.76501 16.426 7.25494 16.2198 7.81075C15.9042 8.66036 15.5678 9.5024 15.2461 10.3497C14.7242 11.7264 14.2047 13.1045 13.689 14.4835C13.5627 14.8212 13.2541 15.065 12.92 15.065V15.0643Z" fill="#FAD806"/>
<path d="M15.5652 14.9499C15.684 14.4477 15.9159 13.9063 16.123 13.3586C16.6535 11.9524 17.1984 10.5517 17.7402 9.14948C17.9376 8.63786 18.1318 8.12467 18.3453 7.61933C18.4994 7.25444 18.9826 7.07161 19.3582 7.23326C19.6383 7.35331 19.9288 7.47259 20.172 7.64914C20.9947 8.2463 21.8342 8.82775 22.542 9.56144C23.083 10.1217 23.5661 10.7275 23.9899 11.3764C24.3422 11.9171 24.1801 12.4052 23.5758 12.6735C22.3655 13.2118 21.1496 13.7407 19.9473 14.2955C18.8477 14.8032 17.7322 15.274 16.6053 15.7189C16.0628 15.9339 15.566 15.5879 15.5668 14.9499H15.5652Z" fill="#FAD806"/>
<path d="M0.513679 18.6392C0.495415 17.6932 0.536509 16.7608 0.716866 15.8242C0.838627 15.1944 1.38427 14.9138 1.90251 15.1461C3.16805 15.7123 4.42827 16.2955 5.71208 16.8066C6.67703 17.1906 7.63133 17.6025 8.59019 18.0026C8.9159 18.1382 9.10006 18.4196 9.10844 18.7638C9.11681 19.13 8.92199 19.4156 8.5978 19.5792C6.48983 20.643 4.38566 21.7152 2.27768 22.7782C2.11787 22.8587 1.94208 22.9104 1.76857 22.9409C1.40329 23.0045 1.12629 22.879 0.9855 22.4586C0.732848 21.7025 0.593584 20.9168 0.52205 20.1208C0.477912 19.6318 0.513679 19.1334 0.513679 18.6392Z" fill="#FAD806"/>
<path d="M25.6087 18.6418C25.6079 20.2139 25.4572 20.0869 25.3401 20.8C25.1733 21.3596 24.8358 21.6947 24.1257 21.429C22.9756 20.9978 21.7933 20.6402 20.6386 20.2139C19.5918 19.8275 18.5212 19.4966 17.4614 19.139C17.1851 19.0457 17.0275 18.8627 17.0053 18.5899C16.9824 18.3067 17.0229 18.0472 17.3451 17.9105C18.1279 17.5781 18.9115 17.2486 19.6958 16.919C20.8253 16.4443 21.9486 15.9584 23.0881 15.504C23.3666 15.3933 23.636 15.2635 23.9191 15.1612C24.5695 14.927 24.9774 15.1205 25.1733 15.7509C25.4671 16.6982 25.4748 17.6798 25.6079 18.6425L25.6087 18.6418Z" fill="#FAD806"/>
<path d="M27.0413 0.940009C27.0547 4.15213 24.8944 6.66365 22.331 6.44302C22.1687 6.42861 22.0444 6.398 22.0317 6.11884C21.9315 3.86306 22.5845 2.08546 24.084 0.85356C24.9001 0.183581 25.8087 -0.0505516 26.7723 0.00888203C26.9686 0.0205887 27.0526 0.106137 27.0427 0.355578C27.0349 0.550088 27.0413 0.745499 27.0406 0.940009H27.0413Z" fill="#3FB34E"/>
<path d="M89.7107 8.64893C90.8873 8.64893 91.7977 9.02024 92.442 9.76288C93.0956 10.4962 93.4224 11.6937 93.4224 13.3554V16.4883H89.7107V13.3971C89.7107 12.803 89.6827 12.3435 89.6267 12.0186C89.58 11.6844 89.4493 11.4106 89.2345 11.1971C89.0197 10.9743 88.6742 10.8629 88.198 10.8629C87.6844 10.8629 87.3062 10.965 87.0635 11.1692C86.83 11.3642 86.6853 11.6287 86.6293 11.9629C86.5732 12.2878 86.5452 12.752 86.5452 13.3554V16.4883H82.8335V8.89956H86.5452V9.80465C87.2456 9.03417 88.3007 8.64893 89.7107 8.64893Z" fill="#1C1C1C"/>
<path d="M76.9985 8.57935C78.0443 8.57935 78.9828 8.75572 79.8138 9.10847C80.6449 9.46122 81.2985 9.95322 81.7747 10.5845C82.251 11.2064 82.4891 11.9073 82.4891 12.687C82.4891 13.4575 82.251 14.1584 81.7747 14.7896C81.2985 15.4116 80.6402 15.8989 79.7998 16.2517C78.9688 16.6044 78.035 16.7808 76.9985 16.7808C75.9994 16.7808 75.0609 16.6044 74.1832 16.2517C73.3055 15.8896 72.6051 15.3976 72.0822 14.7757C71.5593 14.1445 71.2979 13.4482 71.2979 12.687C71.2979 11.9166 71.5593 11.2203 72.0822 10.5984C72.6051 9.96714 73.3008 9.47515 74.1692 9.1224C75.0469 8.76036 75.99 8.57935 76.9985 8.57935ZM76.9985 14.539C77.316 14.539 77.6101 14.4647 77.8809 14.3162C78.161 14.1677 78.3852 13.9542 78.5532 13.6757C78.7213 13.3972 78.8054 13.0676 78.8054 12.687C78.8054 12.3064 78.7213 11.9769 78.5532 11.6984C78.3852 11.4199 78.161 11.2064 77.8809 11.0579C77.6101 10.9094 77.316 10.8351 76.9985 10.8351C76.6904 10.8351 76.3822 10.9094 76.0741 11.0579C75.7753 11.2064 75.5278 11.4246 75.3317 11.7123C75.145 11.9908 75.0516 12.3157 75.0516 12.687C75.0516 13.0584 75.145 13.3879 75.3317 13.6757C75.5278 13.9542 75.7753 14.1677 76.0741 14.3162C76.3822 14.4647 76.6904 14.539 76.9985 14.539Z" fill="#1C1C1C"/>
<path d="M67.7957 8.64893C68.5521 8.64893 69.159 8.80209 69.6166 9.10843C70.0741 9.41477 70.4103 9.9114 70.625 10.5983C70.8398 11.276 70.9472 12.195 70.9472 13.3554V16.4883H67.2355V13.3971C67.2355 12.8123 67.2121 12.3528 67.1654 12.0186C67.1187 11.6752 67.002 11.3967 66.8153 11.1832C66.6285 10.9604 66.3297 10.849 65.9188 10.849C65.536 10.849 65.2512 10.965 65.0644 11.1971C64.8777 11.4199 64.7563 11.7076 64.7003 12.0604C64.6536 12.4039 64.6302 12.8355 64.6302 13.3554V16.4883H60.9185V13.3971C60.9185 12.8123 60.8952 12.3528 60.8485 12.0186C60.8018 11.6752 60.6851 11.3967 60.4983 11.1832C60.3116 10.9604 60.0128 10.849 59.6019 10.849C59.219 10.849 58.9343 10.965 58.7475 11.1971C58.5607 11.4199 58.4394 11.7076 58.3833 12.0604C58.3366 12.4039 58.3133 12.8355 58.3133 13.3554V16.4883H54.6016V8.89956H58.0052L58.1872 9.70718C58.5141 9.33586 58.9436 9.06666 59.4758 8.89956C60.0174 8.73247 60.6851 8.64893 61.4788 8.64893C62.1604 8.64893 62.716 8.77425 63.1455 9.02488C63.5844 9.26624 63.9206 9.65612 64.154 10.1945C64.4622 9.64684 64.9057 9.25231 65.4846 9.01096C66.0729 8.7696 66.8433 8.64893 67.7957 8.64893Z" fill="#1C1C1C"/>
<path d="M54.2134 13.0769H46.93C46.9954 13.6061 47.1822 14.0331 47.4903 14.358C47.8078 14.6829 48.2373 14.8453 48.7789 14.8453C49.2084 14.8453 49.6053 14.7479 49.9695 14.5529C50.3336 14.358 50.5157 13.982 50.5157 13.4251H54.2134C54.2134 14.6133 53.7419 15.4673 52.7988 15.9871C51.865 16.507 50.5251 16.7669 48.7789 16.7669C47.7144 16.7669 46.7526 16.5952 45.8936 16.2517C45.0345 15.9082 44.3575 15.4255 43.8626 14.8036C43.3771 14.1723 43.1343 13.4529 43.1343 12.6453C43.1343 11.8284 43.3817 11.109 43.8766 10.487C44.3715 9.85578 45.0485 9.37307 45.9076 9.03888C46.7666 8.69542 47.7238 8.52368 48.7789 8.52368C49.8527 8.52368 50.7959 8.69077 51.6082 9.02496C52.4299 9.35914 53.0649 9.83257 53.5131 10.4452C53.9707 11.0486 54.2041 11.7588 54.2134 12.5757V13.0769ZM48.7789 10.3756C48.228 10.3756 47.8125 10.4917 47.5323 10.7237C47.2615 10.9465 47.0795 11.2714 46.9861 11.6984H50.4457C50.371 11.2714 50.2029 10.9465 49.9415 10.7237C49.6893 10.4917 49.3018 10.3756 48.7789 10.3756Z" fill="#1C1C1C"/>
<path d="M36.549 6.18433V13.4946H42.7819V16.4884H32.5571V6.18433H36.549Z" fill="#1C1C1C"/>
<path d="M92.7724 25.6942C92.7724 24.0676 92.4518 22.9731 91.8834 22.3315L91.8804 22.3281C91.3161 21.6739 90.5125 21.3313 89.422 21.3313C88.0841 21.3313 87.1409 21.6978 86.5285 22.3755L85.9624 23.0022V21.581H82.937V28.4899H85.9624V25.6942C85.9624 25.0873 85.9901 24.6032 86.0502 24.2523C86.117 23.8534 86.2945 23.5174 86.5916 23.2678C86.9173 22.9927 87.3834 22.8864 87.924 22.8864C88.4348 22.8864 88.88 23.0052 89.1801 23.3146C89.4463 23.5808 89.603 23.9178 89.659 24.3078C89.7192 24.6585 89.7471 25.1378 89.7471 25.7359V28.4899H92.7724V25.6942ZM93.4226 29.1401H89.0969V25.7359C89.0969 25.1504 89.0693 24.7142 89.0184 24.4176L89.0167 24.4075C88.979 24.136 88.8774 23.931 88.7206 23.7742L88.7181 23.7719L88.7158 23.7694C88.5906 23.6387 88.3537 23.5366 87.924 23.5366C87.4481 23.5366 87.1656 23.6338 87.0106 23.7649L87.0098 23.7656C86.845 23.904 86.7356 24.0946 86.6913 24.3607L86.691 24.3622C86.6402 24.6585 86.6125 25.0992 86.6125 25.6942V29.1401H82.2869V20.9309H86.6125V21.4382C87.3417 20.9249 88.2884 20.6812 89.422 20.6812C90.6599 20.6812 91.6584 21.0773 92.3699 21.9002C93.0959 22.7196 93.4226 24.0107 93.4226 25.6942V29.1401Z" fill="#1C1C1C"/>
<path d="M81.9457 25.0287C81.9457 24.3233 81.7333 23.6943 81.3047 23.1312L81.3034 23.1293C80.8706 22.5522 80.2718 22.0953 79.4939 21.7632C78.7172 21.4315 77.8324 21.2622 76.8339 21.2622C75.8753 21.2622 74.9839 21.4349 74.1566 21.7782L74.1552 21.7788C73.338 22.1127 72.6954 22.5732 72.2163 23.1549L72.2149 23.1566C71.7432 23.7209 71.5139 24.3417 71.5139 25.0287C71.5139 25.705 71.7422 26.326 72.2149 26.9007C72.6939 27.4738 73.342 27.9352 74.1708 28.2791C74.9983 28.6131 75.885 28.7813 76.8339 28.7813C77.8227 28.7813 78.7031 28.6121 79.4802 28.2803L79.4814 28.2799C80.2698 27.947 80.8727 27.4936 81.3047 26.9261C81.7342 26.3526 81.9457 25.7233 81.9457 25.0287ZM78.298 25.0287C78.298 24.6983 78.2258 24.4299 78.0946 24.2112C77.9575 23.9828 77.7785 23.812 77.5547 23.6927L77.5526 23.6916L77.5507 23.6905C77.3319 23.5699 77.0948 23.509 76.8339 23.509C76.5835 23.509 76.3269 23.5692 76.0614 23.6977C75.8188 23.8195 75.6164 23.9982 75.4525 24.2402C75.3079 24.458 75.2309 24.7167 75.2309 25.0287C75.2309 25.3393 75.3073 25.6036 75.4533 25.8321C75.6158 26.0626 75.8172 26.2367 76.0601 26.3589C76.326 26.4878 76.5831 26.5483 76.8339 26.5483C77.0948 26.5483 77.3319 26.4874 77.5507 26.3667L77.5526 26.3656L77.5547 26.3646C77.7785 26.2452 77.9575 26.0745 78.0946 25.8461C78.2258 25.6273 78.298 25.3591 78.298 25.0287ZM78.9481 25.0287C78.9481 25.4565 78.8536 25.8446 78.652 26.1807C78.4562 26.507 78.1914 26.7618 77.8605 26.9383L77.8603 26.9381C77.5439 27.1118 77.2 27.1984 76.8339 27.1984C76.4743 27.1984 76.1209 27.1108 75.7765 26.9438L75.7731 26.9421C75.4277 26.7694 75.1415 26.5205 74.9171 26.1999L74.9135 26.1948L74.9101 26.1896C74.6884 25.846 74.5808 25.4555 74.5808 25.0287C74.5808 24.602 74.6884 24.214 74.9128 23.8774L74.9141 23.8755C75.138 23.5449 75.425 23.2892 75.7731 23.1151L75.7765 23.1134C76.1209 22.9464 76.4743 22.8588 76.8339 22.8588C77.2016 22.8588 77.5472 22.946 77.8647 23.1212H77.8645C78.1936 23.2976 78.457 23.5515 78.652 23.8766C78.8537 24.2126 78.9481 24.6009 78.9481 25.0287ZM82.5959 25.0287C82.5959 25.8683 82.3361 26.6344 81.8234 27.318L81.8222 27.3199C81.3112 27.9911 80.6107 28.5084 79.7352 28.8782L79.7354 28.8784C78.8666 29.2493 77.8976 29.4314 76.8339 29.4314C75.8051 29.4314 74.8341 29.2486 73.924 28.8807L73.9213 28.8797C73.0118 28.5023 72.2726 27.9835 71.716 27.3176L71.7146 27.3159C71.1527 26.6336 70.8638 25.8681 70.8638 25.0287C70.8638 24.1809 71.1521 23.4144 71.716 22.7397C72.2721 22.0651 73.0064 21.5462 73.9075 21.1778L74.0792 21.109C74.9409 20.7769 75.8601 20.6121 76.8339 20.6121C77.9065 20.6121 78.8802 20.794 79.7494 21.1651C80.6166 21.5353 81.3117 22.0578 81.8219 22.7373C82.3365 23.4133 82.5959 24.1807 82.5959 25.0287Z" fill="#1C1C1C"/>
<path d="M70.5164 25.6942C70.5164 24.5534 70.4109 23.6756 70.2125 23.0458L70.212 23.0445C70.0144 22.4088 69.717 21.9861 69.3422 21.7336C68.9593 21.4758 68.4284 21.3313 67.7208 21.3313C66.802 21.3313 66.0863 21.4487 65.5577 21.6665L65.5579 21.6667C65.052 21.8789 64.6682 22.2221 64.3983 22.7046L64.0769 23.2794L63.8161 22.6746C63.6083 22.1923 63.3195 21.8649 62.9586 21.6653L62.9514 21.661C62.591 21.4495 62.103 21.3313 61.4655 21.3313C60.7009 21.3313 60.075 21.4123 59.5798 21.5658C59.1023 21.7166 58.7304 21.9548 58.4507 22.2744L58.0289 22.7565L57.7654 21.581H54.9805V28.4899H58.0058V25.6942C58.0058 25.1683 58.0291 24.7226 58.078 24.3609L58.0786 24.3573L58.0791 24.3537C58.1377 23.9825 58.2637 23.6561 58.4689 23.3891L58.511 23.3364C58.7742 23.0109 59.1614 22.8727 59.6069 22.8727C60.069 22.8727 60.4753 22.9998 60.7442 23.3224C60.9764 23.5917 61.1107 23.9302 61.1633 24.3181L61.1806 24.4568C61.218 24.7932 61.2356 25.2211 61.2356 25.7359V28.4899H64.2612V25.6942C64.2612 25.1683 64.2845 24.7226 64.3334 24.3609L64.3338 24.3573L64.3344 24.3537C64.393 23.9825 64.519 23.6561 64.7243 23.3891L64.7664 23.3364C65.0296 23.0109 65.4168 22.8727 65.8622 22.8727C66.3244 22.8727 66.7307 22.9998 66.9996 23.3224C67.2318 23.5917 67.366 23.9302 67.4186 24.3181L67.4358 24.4568C67.4732 24.7932 67.491 25.2211 67.491 25.7359V28.4899H70.5164V25.6942ZM71.1665 29.1401H66.8409V25.7359C66.8409 25.1592 66.8178 24.7186 66.7746 24.4075L66.7744 24.4064C66.7347 24.1129 66.6393 23.899 66.5046 23.744L66.5022 23.7412L66.5001 23.7387C66.3992 23.6175 66.2137 23.5228 65.8622 23.5228C65.5518 23.5228 65.3767 23.6143 65.2701 23.7476L65.2658 23.7526C65.1267 23.9196 65.0256 24.1469 64.977 24.4521C64.9338 24.774 64.9114 25.1868 64.9114 25.6942V29.1401H60.5855V25.7359C60.5855 25.1592 60.5625 24.7186 60.5192 24.4075V24.4064C60.4796 24.1129 60.384 23.899 60.2492 23.744L60.2471 23.7412L60.2447 23.7387C60.1438 23.6175 59.9583 23.5228 59.6069 23.5228C59.2964 23.5228 59.1213 23.6143 59.0147 23.7476L59.0105 23.7526C58.8714 23.9196 58.7704 24.1469 58.7218 24.4521C58.6786 24.774 58.656 25.1868 58.656 25.6942V29.1401H54.3303V20.9309H58.286L58.4001 21.4405C58.6857 21.227 59.0148 21.0626 59.3842 20.9459L59.3857 20.9455C59.9629 20.7664 60.6588 20.6812 61.4655 20.6812C62.1778 20.6812 62.7902 20.8126 63.2805 21.1004C63.6319 21.2964 63.9201 21.5731 64.1484 21.9216C64.456 21.5478 64.8428 21.2617 65.3065 21.0672L65.3082 21.0663C65.9445 20.8037 66.7543 20.6812 67.7208 20.6812C68.5111 20.6812 69.1821 20.842 69.7054 21.1944C70.2367 21.5522 70.6052 22.1188 70.833 22.8515C71.0596 23.5716 71.1665 24.524 71.1665 25.6942V29.1401Z" fill="#1C1C1C"/>
<path d="M47.4531 25.7422C47.5355 26.0386 47.6694 26.2781 47.8493 26.4691C48.0908 26.7163 48.4248 26.8535 48.8895 26.8535C49.2632 26.8535 49.6029 26.7686 49.9142 26.601C50.1327 26.4833 50.2842 26.2476 50.2842 25.7637V25.7422H47.4531ZM48.8895 22.4012C49.4425 22.4013 49.918 22.5227 50.252 22.8262H50.2522C50.2554 22.8289 50.2584 22.8317 50.2615 22.8345H50.2613C50.5858 23.1169 50.7776 23.5132 50.8603 23.9881L50.9265 24.369H46.7107L46.7964 23.9748C46.9003 23.4969 47.1104 23.1021 47.447 22.8232L47.516 22.7693C47.8689 22.5092 48.3417 22.4012 48.8895 22.4012ZM48.8895 23.0514C48.3827 23.0514 48.0587 23.1597 47.863 23.3227L47.8622 23.3233C47.7433 23.4217 47.6422 23.5514 47.5625 23.7189H50.1115C50.0393 23.5481 49.9435 23.4178 49.8292 23.3197L49.8243 23.3157L49.8198 23.3115C49.655 23.1589 49.3669 23.0514 48.8895 23.0514ZM54.5961 25.7637C54.5961 27.0494 54.0782 28.0169 53.0287 28.5993L53.0289 28.5995C52.0342 29.1565 50.6428 29.4177 48.8895 29.4177C47.8 29.4177 46.8055 29.2407 45.9109 28.8809C45.0163 28.5211 44.2966 28.0091 43.7662 27.3385L43.7628 27.3343C43.2379 26.6479 42.9749 25.8616 42.9749 24.987C42.9749 24.1025 43.243 23.3143 43.7799 22.6355C44.3102 21.9559 45.03 21.4438 45.9249 21.0931L46.0935 21.0279C46.9431 20.7121 47.8763 20.5564 48.8895 20.5564C49.9858 20.5564 50.9631 20.7279 51.8143 21.08L51.9735 21.1477C52.7588 21.4957 53.3858 21.9794 53.8403 22.6044H53.8401C54.3362 23.2644 54.5861 24.0389 54.5961 24.914V25.7637ZM43.625 24.987C43.625 25.7207 43.8423 26.367 44.2781 26.9377C44.7276 27.5049 45.3479 27.9538 46.1534 28.2778C46.9602 28.6023 47.8708 28.7675 48.8895 28.7675C50.5943 28.7675 51.8566 28.5109 52.7112 28.0323L52.7125 28.0314C53.4453 27.6251 53.855 26.9938 53.9322 26.0888H50.9134C50.8496 26.5658 50.6349 26.9513 50.2224 27.1735C49.8126 27.3941 49.3664 27.5036 48.8895 27.5036C48.2832 27.5036 47.7673 27.3179 47.3803 26.9195L47.3769 26.9161C47.0156 26.5329 46.8074 26.0388 46.7359 25.4567L46.6912 25.092H53.9459V24.9214L53.9419 24.782C53.9101 24.0916 53.7002 23.4985 53.3178 22.9913L53.3161 22.989L53.3146 22.9868C52.9118 22.433 52.3352 21.9955 51.568 21.6817L51.5669 21.6813C50.8096 21.3679 49.9194 21.2066 48.8895 21.2065C47.8804 21.2065 46.9745 21.3717 46.1674 21.6963L46.1647 21.6975C45.3603 22.0123 44.7406 22.4607 44.2915 23.037L44.29 23.0389C43.8468 23.5992 43.625 24.2442 43.625 24.987Z" fill="#1C1C1C"/>
<path d="M37.1041 18.2263V25.5081H43.2761V29.1403H32.501V18.2263H37.1041ZM33.1511 28.4901H42.6259V26.1583H36.4539V18.8765H33.1511V28.4901Z" fill="#1C1C1C"/>
<path d="M97.7412 6.54565H98.4842C98.6439 6.54565 98.7864 6.56789 98.9117 6.61237C99.0371 6.65482 99.1432 6.7185 99.2301 6.80341C99.3171 6.88832 99.3838 6.99445 99.4303 7.12182C99.4768 7.24918 99.5 7.39575 99.5 7.56152V7.62217C99.5 7.79199 99.4758 7.9426 99.4272 8.074C99.3807 8.20339 99.312 8.31255 99.221 8.4015C99.1321 8.48843 99.0229 8.55515 98.8935 8.60165C98.7642 8.64612 98.6176 8.66836 98.4538 8.66836H97.7412V6.54565ZM98.4235 8.29234C98.5044 8.29234 98.5812 8.28122 98.654 8.25898C98.7268 8.23472 98.7904 8.19631 98.845 8.14375C98.9016 8.09119 98.9461 8.02245 98.9784 7.93754C99.0108 7.85263 99.027 7.74751 99.027 7.62217V7.56152C99.027 7.44427 99.0118 7.34521 98.9815 7.26434C98.9512 7.18145 98.9097 7.11474 98.8571 7.0642C98.8066 7.01366 98.746 6.97727 98.6752 6.95503C98.6065 6.9328 98.5327 6.92168 98.4538 6.92168H98.1961V8.29234H98.4235Z" fill="#1C1C1C"/>
<path d="M96.3019 6.92168H95.6196V6.54565H97.4391V6.92168H96.7568V8.66836H96.3019V6.92168Z" fill="#1C1C1C"/>
<path d="M94.3149 6.54565H94.7698V8.29234H95.7402V8.66836H94.3149V6.54565Z" fill="#1C1C1C"/>
</svg>
