<svg width="12" height="12" viewBox="0 0 12 12" fill="none" xmlns="http://www.w3.org/2000/svg">
<path d="M11.6436 2.45172L6.2436 0.0517522C6.16682 0.0176306 6.08373 0 5.9997 0C5.91568 0 5.83259 0.0176306 5.7558 0.0517522L0.3558 2.45172C0.3438 2.45712 0.3354 2.46612 0.3234 2.47272C0.3066 2.48112 0.2886 2.48652 0.273 2.49672C0.2598 2.50572 0.2496 2.51712 0.237 2.52672C0.193142 2.55931 0.154673 2.59859 0.123 2.64312C0.111 2.65992 0.0983999 2.67492 0.0875999 2.69172C0.069742 2.72343 0.0544918 2.75654 0.042 2.79072C0.0366 2.80692 0.0282 2.82192 0.0234 2.83812C0.00833131 2.89081 0.000459928 2.94531 0 3.00011V9.00004C0 9.23763 0.1392 9.45183 0.3564 9.54843L5.7564 11.9484C5.8344 11.9832 5.9172 12 6 12C6.08354 11.9979 6.16571 11.9782 6.2412 11.9424L6.2436 11.9484L11.6436 9.54843C11.7497 9.50136 11.8399 9.42448 11.9032 9.32713C11.9665 9.22978 12.0001 9.11614 12 9.00004V3.00011C12.0001 2.88401 11.9665 2.77038 11.9032 2.67303C11.8399 2.57567 11.7497 2.49879 11.6436 2.45172ZM6 1.25714L9.9228 3.00011L6 4.74309L5.2152 4.3945L2.0778 3.00011L6 1.25714ZM1.2 8.61064V3.9235L5.4 5.79008V10.4766L1.2 8.61064ZM6.6 10.4766V5.79008L10.8 3.9235V8.61064L6.6 10.4766Z" fill="white"/>
</svg>
