<svg width="24" height="25" viewBox="0 0 24 25" fill="none" xmlns="http://www.w3.org/2000/svg">
<path d="M21.406 6.94392L12.406 2.94392C12.278 2.88705 12.1395 2.85767 11.9995 2.85767C11.8595 2.85767 11.721 2.88705 11.593 2.94392L2.593 6.94392C2.573 6.95292 2.559 6.96792 2.539 6.97892C2.511 6.99292 2.481 7.00192 2.455 7.01892C2.433 7.03392 2.416 7.05292 2.395 7.06892C2.3219 7.12324 2.25779 7.18871 2.205 7.26292C2.185 7.29092 2.164 7.31592 2.146 7.34392C2.11624 7.39677 2.09082 7.45195 2.07 7.50892C2.061 7.53592 2.047 7.56092 2.039 7.58792C2.01389 7.67575 2.00077 7.76657 2 7.85792V17.8579C2 18.2539 2.232 18.6109 2.594 18.7719L11.594 22.7719C11.724 22.8299 11.862 22.8579 12 22.8579C12.1392 22.8544 12.2762 22.8216 12.402 22.7619L12.406 22.7719L21.406 18.7719C21.5829 18.6935 21.7332 18.5653 21.8386 18.4031C21.9441 18.2408 22.0002 18.0514 22 17.8579V7.85792C22.0002 7.66441 21.9441 7.47502 21.8386 7.31277C21.7332 7.15051 21.5829 7.02237 21.406 6.94392ZM12 4.95292L18.538 7.85792L12 10.7629L10.692 10.1819L5.463 7.85792L12 4.95292ZM4 17.2089V9.39692L11 12.5079V20.3189L4 17.2089ZM13 20.3189V12.5079L20 9.39692V17.2089L13 20.3189Z" fill="white"/>
</svg>
