<svg width="160" height="33" viewBox="0 0 160 33" fill="none" xmlns="http://www.w3.org/2000/svg">
<path d="M0.00267682 31.019C0.0762876 30.3607 0.368054 30.0081 0.936865 29.7936C4.70708 28.3737 8.55759 28.056 12.5098 28.8376C14.6071 29.2519 16.7204 29.5858 18.8149 30.0121C20.5722 30.3701 22.2719 30.0765 23.9784 29.7212C26.1158 29.2774 28.2491 28.8041 30.4401 28.7076C30.5498 28.7022 30.6837 28.7129 30.7278 28.5923C30.7934 28.4166 30.6328 28.3643 30.5217 28.3054C30.167 28.119 29.8204 27.9031 29.4457 27.7704C28.5784 27.462 28.1006 26.856 27.8061 25.9966C27.4394 24.9267 27.3953 24.9414 26.3286 25.341C24.7212 25.9416 23.1151 26.545 21.5064 27.1429C19.626 27.8428 17.6987 27.7034 15.7607 27.4888C13.8776 27.281 12.0454 26.7461 10.1396 26.6817C7.37982 26.5879 4.6696 26.9096 1.99151 27.5586C1.75729 27.6149 1.51906 27.6591 1.29957 27.706C1.11487 27.5264 1.2554 27.3869 1.3076 27.2582C2.35287 24.6961 3.40885 22.138 4.44341 19.5718C4.58528 19.2218 4.86099 19.0583 5.14339 18.892C6.25826 18.2364 7.37179 17.5794 8.50539 16.956C8.86542 16.7576 9.07822 16.5028 9.21875 16.1261C9.98162 14.0761 10.778 12.0382 11.5221 9.98147C11.7376 9.38619 12.0882 8.98262 12.653 8.74799C13.5792 8.3632 14.5067 7.98109 15.4369 7.60837C16.2827 7.26916 16.8127 6.66449 17.0697 5.78898C17.4725 4.41875 17.9356 3.0646 18.305 1.68632C18.4964 0.970366 18.8778 0.565463 19.5925 0.431389C19.9632 0.361671 20.3273 0.25039 20.6913 0.147153C21.6523 -0.123677 22.4901 -0.0365287 23.3948 0.54133C25.6915 2.0081 25.7169 1.95715 26.4276 4.67215C26.631 5.44843 26.896 6.20863 27.1222 6.97822C27.2989 7.58021 27.7191 7.95159 28.2491 8.23449C29.0629 8.66755 29.9449 8.91559 30.8135 9.19446C31.397 9.38082 31.8173 9.69858 32.0782 10.2845C32.6417 11.5475 33.2707 12.7809 33.8422 14.0399C34.0363 14.4676 34.3133 14.6888 34.7697 14.7961C35.7012 15.0146 36.6167 15.3002 37.5442 15.5388C37.9229 15.6367 38.1505 15.8392 38.3004 16.2079C39.877 20.0974 41.4563 23.9842 43.0636 27.8602C43.2711 28.3603 43.1386 28.5896 42.7076 28.7987C41.0373 29.6086 39.2801 30.0456 37.4251 30.0979C35.6169 30.1489 33.8128 30.0577 32.014 29.9062C29.1311 29.6635 26.3219 30.0416 23.5541 30.8273C21.6362 31.3716 19.7237 31.2657 17.8004 30.8461C15.5586 30.3567 13.3289 29.803 11.0537 29.4892C8.26582 29.1044 5.54222 29.5053 2.84941 30.2119C1.9112 30.4586 0.981031 30.7401 0 31.019H0.00267682ZM21.7701 16.0497C21.7701 13.6605 21.7634 10.869 21.7767 8.07762C21.7781 7.65127 21.7085 7.38178 21.228 7.25039C20.0891 6.938 19.9994 6.82403 20.0342 5.61469C20.0717 4.27663 20.1787 2.93991 20.2523 1.6032C20.263 1.40879 20.3152 1.15003 20.0489 1.10846C19.804 1.06958 19.555 1.15941 19.4506 1.4289C19.4025 1.55225 19.3864 1.689 19.3623 1.82039C18.566 6.30249 17.7161 10.7765 17.0041 15.272C16.7672 16.7723 16.2399 17.8395 14.7181 18.2485C14.2751 18.3678 14.0931 18.6748 14.0021 19.1119C13.5752 21.1418 13.1389 23.1703 12.6704 25.1922C12.5593 25.6695 12.7159 25.8652 13.1469 25.9349C13.7411 26.0301 14.3367 26.1159 14.9296 26.2111C17.0041 26.5409 19.0531 26.5651 21.0513 25.7687C21.4823 25.5971 21.671 25.3812 21.6724 24.8905C21.6804 22.0776 21.6268 19.2634 21.7714 16.0483L21.7701 16.0497ZM22.7939 14.3845C22.8381 14.3845 22.8822 14.3845 22.9264 14.3845C22.9264 14.8752 22.9157 15.3659 22.9278 15.8566C22.9973 18.6896 23.0803 21.5226 23.1406 24.3569C23.1513 24.8959 23.344 24.9937 23.8419 24.857C25.3743 24.4346 26.8305 23.8528 28.1956 23.0282C29.0642 22.5026 29.0789 22.5308 28.8728 21.5105C27.9145 16.7656 26.9563 12.0207 25.998 7.2772C25.7544 6.07456 25.4948 4.8746 25.2699 3.66793C25.1428 2.99086 24.586 3.00025 24.1363 2.98684C23.6612 2.97343 23.8138 3.43733 23.8178 3.71754C23.8378 5.14543 23.8606 6.57332 23.9262 7.99852C23.9503 8.52275 23.8138 8.91291 23.3721 9.1891C22.9077 9.4787 22.7698 9.89164 22.7832 10.436C22.8167 11.7526 22.7939 13.0692 22.7939 14.3858V14.3845ZM31.1989 13.3776C31.1507 13.387 31.1026 13.3977 31.0557 13.4071C30.8202 12.7863 30.5806 12.1682 30.3504 11.5461C29.9319 10.4154 29.1289 9.75355 27.9413 9.56048C27.8972 9.55378 27.853 9.54573 27.8102 9.53635C27.3538 9.43177 27.1891 9.59132 27.2922 10.0633C28.1367 13.8951 28.9759 17.7296 29.8097 21.5641C29.8873 21.9208 30.0774 22.0562 30.4227 22.0066C32.0956 21.7612 33.7686 21.5172 35.4402 21.2692C35.8645 21.2061 35.9917 21.0426 35.7869 20.5934C35.0816 19.0543 34.4244 17.4923 33.7405 15.9424C33.2814 14.9033 32.7996 13.8736 32.3473 12.8305C32.192 12.4726 31.9551 12.2862 31.575 12.3506C31.207 12.4122 31.2859 12.7461 31.2431 12.9955C31.2217 13.1215 31.215 13.2489 31.2016 13.3762L31.1989 13.3776ZM11.1474 25.5005C11.7202 25.6118 11.7362 25.1747 11.8246 24.81C12.8297 20.694 13.8362 16.5779 14.8373 12.4618C15.1116 11.3356 15.3472 10.2 15.6403 9.07916C15.7621 8.61258 15.5867 8.56834 15.2147 8.64878C14.8707 8.72386 14.5977 8.86464 14.4545 9.22396C14.2979 9.61679 14.0744 9.98416 13.9298 10.381C13.7652 10.8342 13.4975 11.1359 13.0238 11.2659C12.2207 11.4871 11.7791 12.0449 11.5368 12.8292C11.241 13.7878 10.889 14.729 10.5558 15.6756C10.1971 16.6946 10.1717 16.7254 11.0483 17.3622C11.5074 17.6961 11.5877 18.0272 11.4485 18.5501C10.9653 20.3601 10.5183 22.1795 10.07 23.9976C9.71796 25.4187 9.72599 25.4214 11.1487 25.4992L11.1474 25.5005ZM7.08805 20.6859C7.14426 20.2998 7.19646 19.9713 7.24062 19.6428C7.26605 19.4525 7.21653 19.183 6.99838 19.3144C6.3399 19.7126 5.45523 19.7662 5.12063 20.6712C4.54245 22.2385 3.91609 23.7884 3.26832 25.3289C3.03946 25.8746 3.19471 26.0274 3.71935 25.9684C5.26652 25.7955 6.81368 25.6118 8.36219 25.4442C8.67135 25.4107 8.844 25.2726 8.9243 24.9736C9.51988 22.7815 10.1195 20.5894 10.7258 18.4C10.8302 18.0232 10.6374 17.8221 10.3671 17.6223C10.0981 17.4239 9.87857 17.4199 9.58412 17.6063C8.53617 18.2726 7.53105 18.9564 7.34502 20.3306C7.32896 20.45 7.30085 20.6001 7.08805 20.6846V20.6859ZM37.8373 23.6517C37.7945 23.7227 37.7516 23.7938 37.7075 23.8648C37.5147 23.9024 37.3233 23.9466 37.1293 23.9748C34.6841 24.3368 32.2375 24.6921 29.7923 25.0581C28.7042 25.2203 28.6292 25.4107 29.1673 26.3506C29.3493 26.6697 29.6049 26.6965 29.9034 26.6616C30.4561 26.5986 31.0089 26.5235 31.5616 26.4565C33.6856 26.2031 35.811 25.9671 37.9323 25.6896C38.4824 25.6172 38.5774 25.8022 38.5265 26.3009C38.4677 26.8761 38.4837 27.4607 38.4891 28.0412C38.4944 28.6379 38.8839 28.8805 39.3416 28.5065C40.2116 27.7972 40.87 26.907 40.8152 25.7124C40.7375 24.0244 38.4636 22.0173 36.7492 22.0682C36.6167 22.0723 36.4654 22.0562 36.4146 22.2184C36.3651 22.3766 36.5002 22.4584 36.5953 22.5442C37.0075 22.9156 37.4224 23.2829 37.8373 23.6517ZM14.4357 17.2295C14.4076 17.5915 14.4572 17.7792 14.8747 17.613C15.6804 17.2925 16.3309 16.8648 16.4714 15.9129C16.5531 15.3632 16.7204 14.8282 16.8207 14.2812C17.2035 12.2017 17.5742 10.1196 17.9503 8.03874C17.9811 7.86579 18.0601 7.67272 17.8647 7.55608C17.6853 7.45016 17.5194 7.57217 17.3681 7.65663C16.9318 7.90333 16.7498 8.34309 16.5691 8.77481C16.2332 9.58059 16.0565 10.4333 15.8504 11.2766C15.3659 13.2663 14.9002 15.2613 14.4331 17.2295H14.4357ZM35.1793 15.9866C34.6252 15.988 34.9022 16.3567 35.008 16.598C35.5888 17.924 36.1884 19.2406 36.78 20.5626C36.9125 20.8575 37.1025 21.0841 37.4023 21.2303C38.0233 21.5306 38.6336 21.851 39.2519 22.1581C39.3831 22.2238 39.5263 22.3753 39.6722 22.2385C39.8141 22.1044 39.6896 21.9476 39.6294 21.8095C39.0726 20.521 38.3994 19.2688 37.9872 17.9361C37.5415 16.4948 36.4253 16.2561 35.1806 15.9866H35.1793ZM20.2564 5.04085C20.2764 5.04085 20.2965 5.04219 20.3166 5.04353C20.3166 5.42162 20.2911 5.80105 20.3219 6.17646C20.3755 6.81465 20.872 6.96079 21.3752 6.96615C21.944 6.97151 21.7393 6.47544 21.7888 6.16037C21.8637 5.68441 21.6148 5.14006 21.944 4.73918C22.1729 4.46031 22.1702 4.22568 22.0792 3.95083C21.8223 3.17856 21.7674 2.38753 21.7821 1.58174C21.7875 1.28812 21.8557 0.891263 21.3712 0.907352C20.9416 0.9221 20.5401 0.971707 20.5106 1.58442C20.4571 2.7388 20.3447 3.88916 20.2577 5.04219L20.2564 5.04085ZM37.8587 27.5478C37.8587 27.3695 37.8426 27.1899 37.8614 27.0142C37.9336 26.3559 37.6138 26.2272 37.0249 26.2956C35.6611 26.4551 35.6584 26.4364 35.9314 27.7758C35.9676 27.9501 35.9943 28.1257 36.0345 28.3C36.0907 28.544 36.2366 28.658 36.4976 28.6969C37.7195 28.8792 37.8881 28.7451 37.8587 27.5478ZM34.494 28.7049C35.6785 28.6982 35.7882 28.9529 35.463 27.4781C35.4242 27.3038 35.3921 27.1282 35.3599 26.9539C35.3144 26.7018 35.1712 26.5302 34.9102 26.553C34.4231 26.5959 33.9386 26.6683 33.4554 26.7367C33.3403 26.7528 33.2319 26.8372 33.2493 26.9606C33.3229 27.5103 33.2948 28.1029 33.6 28.5762C33.8061 28.8966 34.2237 28.6714 34.494 28.7049ZM23.6679 6.96079C23.6639 6.31723 23.7254 5.67234 23.625 5.03012C23.601 4.87594 23.6076 4.70298 23.4136 4.65874C23.2771 4.6279 23.1513 4.68555 23.0469 4.77941C22.8782 4.92957 22.3295 6.93666 22.4821 7.07073C22.9746 7.50513 22.7605 8.05081 22.8033 8.55761C22.8153 8.70643 22.7578 8.89279 22.9385 8.96922C23.1191 9.0443 23.2115 8.87134 23.3306 8.78151C23.5581 8.6099 23.6813 8.39538 23.6706 8.09774C23.6572 7.71965 23.6679 7.34022 23.6679 6.96213V6.96079ZM31.8293 26.8815C31.488 26.9204 30.8911 26.9887 30.2969 27.0598C30.1831 27.0732 30.06 27.1148 30.0506 27.2395C30.0466 27.3011 30.1322 27.403 30.1992 27.4299C31.0249 27.7583 31.8534 28.0801 32.6832 28.3965C32.8184 28.4488 32.9388 28.4193 33.0031 28.2584C33.2239 27.6967 32.6631 26.8439 31.8293 26.8815ZM34.9504 23.72C35.2663 23.6718 35.6142 23.6181 35.9636 23.5658C36.3892 23.5015 36.3945 23.2937 36.2018 22.9652C35.8123 22.2988 34.581 22.0521 33.9761 22.5348C33.9051 22.5925 33.8583 22.6515 33.8677 22.756C33.8984 23.0899 34.5864 23.7294 34.9504 23.72ZM32.6163 24.1357C32.9469 24.0793 33.3216 24.023 33.6923 23.9493C33.8677 23.9144 33.9988 23.7763 33.8958 23.6101C33.6789 23.2588 33.5384 22.7413 33.1008 22.685C32.6096 22.622 32.0849 22.7332 31.6152 22.9598C31.5737 22.9799 31.5469 23.0711 31.5442 23.1301C31.5335 23.4345 32.2522 24.1316 32.6163 24.1357ZM28.917 24.5473C28.9411 24.613 28.9652 24.6787 28.9906 24.7444C29.72 24.6237 30.4521 24.5137 31.1789 24.377C31.3743 24.3394 31.7236 24.2858 31.5322 23.9774C31.3555 23.6946 31.2324 23.1033 30.772 23.3218C30.1095 23.6369 29.5313 24.1303 28.917 24.5459V24.5473Z" fill="white"/>
<path d="M35.4989 31.8207C38.2078 31.9374 40.8832 31.6464 43.5091 30.9881C44.1007 30.8407 44.3362 31.0056 44.458 31.5271C44.5999 32.1345 44.0578 32.0339 43.7848 32.113C40.6677 33.0247 37.5051 33.0194 34.3238 32.5273C33.8835 32.4589 33.4445 32.3892 33.0069 32.3074C32.8048 32.2699 32.4702 32.3141 32.525 31.995C32.5746 31.7081 32.8851 31.8221 33.0952 31.8207C33.8969 31.8181 34.6972 31.8207 35.4989 31.8207Z" fill="white"/>
<path d="M3.39844 32.3155C4.88538 31.6907 6.37499 31.2121 7.94223 30.9962C10.2817 30.6745 12.4204 31.5245 14.5859 32.1841C14.7291 32.227 15.0544 32.2029 14.9875 32.5099C14.9179 32.8304 14.6649 32.8156 14.4012 32.7553C13.0321 32.4469 11.6562 32.1667 10.2616 32.0085C8.13763 31.7685 6.04173 32.0849 3.94583 32.3732C3.78255 32.396 3.61392 32.5086 3.39978 32.3142L3.39844 32.3155Z" fill="white"/>
<path d="M95.3126 14.1873C94.699 15.8384 94.1995 17.2304 93.6619 18.613C92.7415 20.9919 91.7994 23.3614 92.1795 25.9428C92.242 26.3691 92.1904 26.9203 91.5252 26.9179C90.8872 26.9155 91.0094 26.362 91.0094 25.9993C91.0229 19.2937 91.0474 12.5881 91.08 5.88243C91.08 5.45612 91.0582 4.89319 91.7533 4.93323C92.3723 4.97092 92.223 5.53149 92.223 5.8895C92.2257 9.30002 92.1985 12.7129 92.1985 16.1234C92.1985 16.618 92.0465 17.1339 92.4049 17.6968C92.9832 17.4542 93.0293 16.9666 93.1759 16.5592C93.9904 14.2745 94.8049 11.9922 95.5841 9.69807C95.9995 8.47094 95.7008 7.20142 95.7986 5.9531C95.8312 5.55505 95.6248 4.94737 96.3362 4.9191C97.1724 4.88613 96.9823 5.54327 96.9796 5.97429C96.9307 12.5998 96.8683 19.2254 96.8004 25.8486C96.795 26.2537 96.928 26.8802 96.2656 26.8873C95.5108 26.8944 95.6384 26.2349 95.6411 25.7944C95.6601 22.5017 95.7063 19.2089 95.7307 15.9161C95.7334 15.4569 95.8637 14.9787 95.3126 14.1873Z" fill="white"/>
<path d="M141.999 15.8985C141.999 19.6376 141.999 22.9023 141.999 26.1695C141.999 26.4914 142.006 26.8157 141.981 27.1351C141.957 27.4255 141.874 27.7402 141.548 27.7571C141.141 27.7789 141.078 27.4159 141.039 27.0891C141.016 26.8907 141.025 26.6874 141.023 26.4841C141.007 21.3631 140.997 16.2421 140.967 11.1211C140.96 9.71019 140.872 8.30168 140.856 6.89316C140.847 6.1647 140.525 5.88397 139.857 5.90091C139.105 5.92027 139.049 6.35348 139.051 7.02385C139.07 12.8225 139.412 18.6356 138.413 24.3931C138.239 25.3999 137.931 26.351 137.334 27.1618C136.772 27.9265 136.004 28.0983 135.162 27.7353C134.421 27.4183 133.989 26.8375 134 25.9662C134.003 25.7242 134.023 25.458 134.289 25.366C134.562 25.2692 134.743 25.4604 134.831 25.6879C135.055 26.276 135.314 26.8883 136.032 26.7237C136.703 26.5712 136.964 25.896 137.14 25.2813C137.781 23.0233 137.89 20.6831 138.026 18.3501C138.262 14.3181 138.036 10.2862 138.026 6.25667C138.024 5.25715 138.336 4.90381 139.294 4.91834C142.233 4.9619 141.879 4.7102 141.893 7.66276C141.907 10.5645 141.839 13.4687 141.999 15.896V15.8985Z" fill="white"/>
<path d="M59.9948 15.952C59.9948 19.0639 59.9948 22.1735 59.9948 25.2854C59.9948 25.6314 59.9896 25.9774 59.9584 26.3212C59.9377 26.5634 59.8156 26.7825 59.4962 26.7802C59.2027 26.7802 58.995 26.5911 58.9482 26.3627C58.8781 26.0259 58.8781 25.6752 58.8781 25.3315C58.8703 19.3015 58.8703 13.2715 58.8573 7.24144C58.8573 6.68549 59.0131 6.05343 58.0029 5.97499C56.9382 5.89425 56.681 6.32101 56.6888 7.19069C56.7278 10.8009 56.7434 14.411 56.6888 18.0212C56.6577 20.095 56.3876 22.1596 55.8448 24.1827C55.6111 25.0501 55.2631 25.8736 54.4762 26.4872C53.8088 27.0086 53.0505 27.0132 52.2895 26.7318C51.565 26.4642 51.1105 25.9728 51.0196 25.2508C50.9807 24.9301 50.9573 24.6003 51.3832 24.4918C51.7442 24.3996 51.9493 24.6464 52.0558 24.9071C52.2584 25.41 52.5415 25.8644 53.2141 25.8183C53.9023 25.7698 54.2217 25.2692 54.4373 24.7502C55.3462 22.5541 55.4371 20.245 55.5773 17.9474C55.8111 14.1111 55.5228 10.2726 55.5773 6.43405C55.5955 5.11224 55.8111 4.93462 57.3381 4.91847C57.7276 4.91386 58.1172 4.93923 58.5041 4.93231C59.5403 4.91155 59.9559 5.34293 59.9455 6.27258C59.9091 9.49982 59.9325 12.7248 59.9325 15.952C59.9559 15.952 59.9792 15.952 60 15.952H59.9948Z" fill="white"/>
<path d="M127.044 15.5405C127.185 12.7227 126.682 9.87224 127.386 7.07537C127.651 6.02277 128.238 5.19605 129.472 4.97715C130.946 4.71632 131.963 5.31947 132.44 6.73304C132.639 7.3199 132.741 7.94867 132.774 8.56347C133.044 13.6425 133.128 18.7216 132.708 23.796C132.639 24.6274 132.369 25.3936 131.777 26.0456C130.665 27.2752 128.998 27.196 128.034 25.864C127.22 24.7438 127.126 23.4374 127.07 22.1729C126.973 19.9652 127.042 17.7505 127.042 15.5405H127.044ZM131.818 15.7897C131.818 15.7897 131.797 15.7897 131.787 15.7897C131.787 13.6588 131.815 11.528 131.774 9.3995C131.757 8.51689 131.711 7.61565 131.275 6.79359C130.999 6.27195 130.584 5.89469 129.9 5.92263C129.214 5.94825 128.834 6.36743 128.612 6.90305C128.36 7.52017 128.225 8.16292 128.179 8.82662C127.873 13.3165 128.054 17.8064 128.194 22.294C128.225 23.2557 128.357 24.2362 128.85 25.1141C129.393 26.0829 130.382 26.1131 131.025 25.1956C131.642 24.3153 131.79 23.307 131.805 22.2963C131.841 20.1282 131.815 17.9578 131.815 15.7897H131.818Z" fill="white"/>
<path d="M73.9887 15.8539C73.9887 19.2196 73.9931 22.5875 73.9822 25.9532C73.9822 26.3081 74.1224 26.8839 73.6161 26.9003C73.0529 26.9168 73.1318 26.3198 73.1274 25.9109C73.0945 23.1728 73.0551 20.4323 73.0638 17.6942C73.066 16.7988 72.8863 16.3334 71.911 16.3522C70.0458 16.3898 69.9296 16.3781 69.9296 17.6472C69.9296 20.1902 69.9888 22.7333 70.0239 25.2763C70.0282 25.5513 70.0282 25.8239 70.0195 26.0989C70.0063 26.4561 69.9866 26.8933 69.5724 26.9168C69.0573 26.945 69.0989 26.435 69.0529 26.0636C69.0288 25.8709 69.0332 25.6735 69.0332 25.4784C69.0222 19.0597 69.0113 12.6411 69.0025 6.22242C69.0025 6.10491 68.9937 5.98504 69.0091 5.86988C69.0551 5.51263 68.8863 4.96502 69.4145 4.94387C69.9713 4.92036 69.8354 5.49148 69.8419 5.83462C69.8858 7.90759 69.9011 9.9829 69.9208 12.0582C69.9252 12.5283 69.9099 12.9983 69.9099 13.4684C69.9165 15.3181 69.9208 15.2382 71.6677 15.3439C72.8227 15.4144 73.0945 14.9632 73.0616 13.8045C72.9893 11.1839 73.0353 8.56097 73.0397 5.93804C73.0397 5.53379 72.8644 4.92741 73.4474 4.91801C74.0742 4.90861 73.9646 5.55024 73.9646 5.99915C73.9712 9.28721 73.969 12.5753 73.969 15.8633C73.9778 15.8633 73.9866 15.8633 73.9953 15.8633L73.9887 15.8539Z" fill="white"/>
<path d="M77.0186 15.3837C77.0186 13.2517 77.0211 11.122 77.0186 8.99006C77.0186 8.12424 77.2054 7.28635 77.525 6.49035C77.9675 5.39178 78.85 4.8681 80.1086 4.92163C81.35 4.97516 81.8982 5.73625 82.1882 6.73939C82.3947 7.45393 82.4144 8.19406 82.3652 8.93188C82.3455 9.25307 82.289 9.58823 81.8539 9.59754C81.3967 9.60685 81.3672 9.24609 81.3573 8.93654C81.3328 8.24062 81.3524 7.5447 81.0869 6.87205C80.878 6.34139 80.5191 6.00856 79.9242 5.9946C79.349 5.98063 78.8942 6.24829 78.6435 6.7487C78.287 7.45858 78.1371 8.222 78.1027 9.0017C77.8962 13.5705 77.9036 18.1394 78.1101 22.7082C78.1469 23.4949 78.3338 24.2351 78.7074 24.9403C78.9876 25.471 79.4227 25.8084 80.0397 25.834C80.7305 25.862 81.1877 25.4663 81.4827 24.9147C81.8195 24.2816 81.9596 23.6043 81.9227 22.8898C81.9031 22.522 82.0555 22.1264 82.498 22.138C82.9626 22.1496 83.0216 22.5593 82.9945 22.9293C82.9183 23.979 82.7856 25.0217 82.1096 25.9062C81.0452 27.2957 78.968 27.2445 77.965 25.8108C77.2079 24.7285 77.0825 23.4693 77.0407 22.2404C76.9645 19.9571 77.0186 17.6692 77.0186 15.3837Z" fill="white"/>
<path d="M145.033 16.3353C145.033 13.0201 145.09 9.70255 145.001 6.38978C144.97 5.24389 145.497 4.87394 146.733 4.92198C147.536 4.95081 148.342 4.92198 149.145 4.95081C149.53 4.96522 149.963 5.05891 149.985 5.45289C150.008 5.85647 149.584 5.94056 149.196 5.99101C149.103 6.00302 149.009 5.99821 148.912 6.00542C146.309 6.20962 146.286 6.20961 146.297 8.46296C146.323 12.6574 146.397 16.8518 146.4 21.0486C146.4 21.9663 146.636 22.4756 147.889 22.4371C149.325 22.3939 150.373 23.0401 150.797 24.1764C151.199 25.2598 151.053 26.3769 149.914 27.1312C148.735 27.9119 147.34 28.1185 145.881 27.7198C145.104 27.506 145.221 26.9198 145.221 26.4081C145.215 23.0521 145.221 19.6961 145.221 16.3401C145.158 16.3401 145.095 16.3401 145.033 16.3401V16.3353ZM146.391 25.0172C146.665 25.6274 145.847 26.7324 147.465 26.7901C148.704 26.8333 149.723 26.0093 149.706 25.0556C149.689 24.1139 148.798 23.4341 147.553 23.3836C145.97 23.3188 146.571 24.3325 146.391 25.0172Z" fill="white"/>
<path d="M113.015 16.5009C113.049 13.4276 112.968 10.6297 113.314 7.84111C113.533 6.07461 114.645 5.00818 116.261 4.92417C117.628 4.85183 118.475 5.40955 118.934 6.41531C119.325 7.26939 119.214 8.17715 119.174 9.06856C119.163 9.30425 119.082 9.56328 118.735 9.58428C118.333 9.60761 118.168 9.36259 118.129 9.06623C118.045 8.4105 118 7.75244 117.897 7.09904C117.804 6.50632 117.41 6.06061 116.686 5.96493C115.898 5.86226 115.355 6.24963 115.009 6.80035C114.519 7.57976 114.486 8.44083 114.419 9.29491C114.064 13.8757 114.055 18.4564 114.503 23.0349C114.575 23.7769 114.724 24.498 115.213 25.1421C115.917 26.0708 117.173 26.1292 117.961 25.2471C118.571 24.5657 118.71 23.7536 118.794 22.9345C118.831 22.5822 118.853 22.1458 119.412 22.1691C120.052 22.1971 120.022 22.6615 119.982 23.0559C119.89 23.9496 119.694 24.813 119.197 25.6321C118.674 26.4862 117.891 26.9179 116.756 26.9179C115.652 26.9179 114.788 26.5749 114.204 25.7535C113.639 24.9624 113.351 24.1106 113.312 23.2076C113.211 20.8787 112.926 18.5545 113.018 16.4986L113.015 16.5009Z" fill="white"/>
<path d="M84.0053 15.829C84.0053 12.54 83.9972 9.25109 84.0161 5.96215C84.0161 5.56927 83.8542 4.95994 84.5583 4.93877C85.3083 4.91524 85.0979 5.52928 85.1248 5.92216C85.1599 6.43032 85.1221 6.94084 85.1383 7.449C85.1491 7.78307 84.9873 8.223 85.4998 8.3571C85.9315 8.47003 86.2552 8.16655 86.5439 7.92188C87.2453 7.32667 87.5798 6.56207 87.7768 5.74572C87.8685 5.36695 87.8604 4.84231 88.4782 4.92701C89.2201 5.02582 88.9314 5.58574 88.8613 5.97627C88.5834 7.57369 87.8172 8.90761 85.9773 9.51929C85.3515 9.72632 85.1653 10.0439 85.168 10.5709C85.1842 13.8998 85.2031 17.2288 85.1896 20.5577C85.1869 21.4682 85.4621 22.0422 86.5682 22.4045C88.2165 22.9432 89.2821 24.9336 88.9341 26.3969C88.8774 26.6368 88.7992 26.8862 88.4917 26.9144C88.1005 26.9521 87.9575 26.6768 87.882 26.3992C87.7444 25.9052 87.6311 25.4064 87.5043 24.91C87.3694 24.3901 87.0187 23.9949 86.5601 23.6584C86.2795 23.4538 85.98 23.2326 85.5997 23.3479C85.1572 23.482 85.2651 23.8584 85.2597 24.1572C85.2489 24.823 85.2759 25.4888 85.2597 26.1546C85.2516 26.5074 85.2193 26.9427 84.6662 26.9097C84.2265 26.8815 84.1968 26.4839 84.1914 26.1687C84.159 24.3689 84.1267 22.5668 84.1105 20.7671C84.097 19.1226 84.1078 17.4781 84.1078 15.8337C84.0727 15.8337 84.0403 15.8337 84.0053 15.8337V15.829Z" fill="white"/>
<path d="M62.0196 15.8219C62.0196 12.6165 62.0529 9.41107 62.0006 6.20796C61.9839 5.2454 62.3123 4.85806 63.2901 4.92532C63.9991 4.97403 64.7152 4.94156 65.4266 4.96707C65.7145 4.97635 66 5.07377 66 5.42168C66 5.78815 65.6907 5.81134 65.4123 5.84845C65.3743 5.85309 65.3338 5.85309 65.2934 5.85773C62.9784 6.14301 62.9665 6.14302 62.9832 8.46243C62.9975 10.3922 63.076 12.3219 63.057 14.2517C63.0474 15.1099 63.3567 15.4068 64.2323 15.3928C64.7938 15.3836 65.8192 15.1377 65.7692 15.9425C65.7216 16.6894 64.7509 16.3832 64.1609 16.3276C63.3972 16.2557 63.0641 16.5224 63.0736 17.2901C63.0998 19.8392 63.1117 22.3882 63.0831 24.9349C63.0736 25.7003 63.3853 25.9856 64.1323 25.9554C64.5654 25.9369 65.0031 25.9624 65.4361 25.9949C65.7216 26.0158 66.0048 26.0946 65.9929 26.4564C65.9833 26.7371 65.7692 26.8809 65.5242 26.8855C64.5749 26.9018 63.6184 26.9598 62.6787 26.8647C62.003 26.7974 62.0553 26.1735 62.0553 25.6678C62.0553 22.3859 62.0553 19.1039 62.0553 15.8219C62.0434 15.8219 62.0315 15.8219 62.0196 15.8219Z" fill="white"/>
<path d="M100.829 21.0979C100.829 22.3327 100.857 23.5699 100.818 24.8024C100.793 25.5947 101.007 25.882 101.626 25.9283C102.09 25.9607 102.944 25.5344 102.927 26.4727C102.915 27.228 102.083 26.7669 101.623 26.8828C101.451 26.9268 101.264 26.8596 101.089 26.8874C100.241 27.0264 100.027 26.4913 100.032 25.4673C100.052 21.0678 100.018 16.666 100.007 12.2665C100.002 10.1814 100.029 8.09638 100 6.01363C99.9896 5.20741 100.229 4.8877 100.834 4.92014C101.398 4.95025 101.964 4.92013 102.529 4.93404C102.792 4.93867 103.029 5.07072 102.997 5.46457C102.97 5.8005 102.715 5.80513 102.508 5.83061C102.478 5.83524 102.449 5.83061 102.419 5.83293C100.686 6.03449 100.638 6.03912 100.73 8.36512C100.809 10.3343 100.816 12.2989 100.804 14.2658C100.798 15.0489 100.964 15.4497 101.607 15.3431C101.724 15.3246 101.846 15.3269 101.964 15.3408C102.305 15.3756 102.817 15.2412 102.81 15.8644C102.803 16.5038 102.276 16.3347 101.951 16.3347C100.793 16.3347 100.796 16.3185 100.805 17.8545C100.812 18.9364 100.805 20.016 100.805 21.0979C100.812 21.0979 100.82 21.0979 100.829 21.0979Z" fill="white"/>
<path d="M152.045 16.0679C152.045 12.7461 152.036 9.42195 152.057 6.10021C152.057 5.66493 151.746 4.94027 152.579 4.91838C153.426 4.8965 153.151 5.63817 153.156 6.05886C153.229 10.9612 153.299 15.866 153.299 20.7684C153.299 21.8432 153.574 22.3855 155.037 22.4366C156.961 22.5047 157.985 23.5235 158 25.0288C158.014 26.5827 157.074 27.5286 155.223 27.7985C154.796 27.8617 154.361 27.9007 153.925 27.9152C152.683 27.9566 152.062 27.5189 152.074 26.4027C152.115 22.9594 152.089 19.5136 152.089 16.0703C152.074 16.0703 152.057 16.0703 152.042 16.0703L152.045 16.0679ZM153.328 24.9364C153.38 26.6945 153.47 26.8429 154.407 26.8477C155.757 26.8526 156.677 26.089 156.677 24.9631C156.677 24.0148 155.597 23.2828 154.28 23.3631C152.829 23.4506 153.516 24.4184 153.328 24.9364Z" fill="white"/>
<path d="M122.485 16.4193C122.485 13.3911 122.456 10.3653 122.503 7.3372C122.519 6.3947 122.302 5.82313 121.063 5.93278C120.64 5.97011 120.036 5.97944 120.002 5.48486C119.962 4.8713 120.621 4.93896 121.079 4.93196C122.445 4.91096 123.808 4.91563 125.174 4.93196C125.579 4.93663 126.037 5.01827 125.998 5.48253C125.966 5.85113 125.548 5.97244 125.193 5.93511C123.803 5.79047 123.642 6.46702 123.652 7.47717C123.708 13.3771 123.708 19.2771 123.729 25.1747C123.729 25.4454 123.755 25.7206 123.729 25.9889C123.692 26.3482 123.869 26.8988 123.252 26.9174C122.612 26.9361 122.58 26.3995 122.58 25.9656C122.569 23.3644 122.569 20.7655 122.567 18.1643C122.567 17.5811 122.567 17.0002 122.567 16.4169C122.54 16.4169 122.517 16.4169 122.49 16.4169L122.485 16.4193Z" fill="white"/>
<path d="M159.999 20.9741C159.999 22.665 160.001 24.3535 159.999 26.0444C159.999 26.4133 160.029 26.8787 159.566 26.9158C159.1 26.953 159.03 26.4826 159.028 26.1236C159.005 22.6205 159 19.1173 159 15.6142C159 15.275 159.118 14.8789 159.496 14.921C159.909 14.968 159.969 15.3765 159.967 15.7801C159.957 17.5106 159.962 19.2436 159.962 20.9741C159.973 20.9741 159.985 20.9741 159.999 20.9741Z" fill="white"/>
<path d="M53 15.3329C52.9335 15.6901 52.6392 15.9089 51.965 15.9177C51.3335 15.9252 51.0439 15.7316 51.0035 15.4159C50.9608 15.0713 51.3074 14.9167 51.9222 14.9179C52.4825 14.9179 52.924 15.016 52.9976 15.3329H53Z" fill="white"/>
<path d="M109 15.3241C108.943 15.6995 108.598 15.8961 107.955 15.9164C107.312 15.9379 107.033 15.73 107.002 15.4167C106.971 15.0845 107.283 14.898 107.919 14.9196C108.442 14.9361 108.953 14.9868 108.998 15.3241H109Z" fill="white"/>
<path d="M160 5.88334C159.92 6.41612 159.724 6.88355 159.075 6.91622C158.439 6.94889 158.095 6.50407 158.013 5.96125C157.914 5.30533 158.398 5.00879 158.954 4.93088C159.593 4.84041 159.896 5.22994 160 5.88585V5.88334Z" fill="white"/>
<path d="M109 25.7506C108.962 26.5071 108.555 26.8951 107.887 26.9172C107.333 26.9368 107.037 26.5464 107.004 25.9987C106.963 25.3307 107.245 24.9304 107.949 24.9181C108.538 24.9107 108.924 25.1268 108.998 25.7506H109Z" fill="white"/>
<path d="M108.005 4.91791C108.691 4.9408 108.976 5.3706 108.998 5.89704C109.026 6.50486 108.728 6.94229 108.03 6.91685C107.395 6.89396 106.993 6.5837 107 5.92756C107.008 5.2587 107.503 5.02727 108.005 4.91791Z" fill="white"/>
<path d="M53 5.83133C52.9564 6.54808 52.6614 6.93002 52.0559 6.91761C51.3453 6.90521 50.9733 6.4588 51.0015 5.79413C51.0271 5.20386 51.5146 4.93353 52.0456 4.91865C52.7332 4.89633 52.959 5.38243 53 5.83133Z" fill="white"/>
</svg>
