<svg width="100" height="33" viewBox="0 0 100 33" fill="none" xmlns="http://www.w3.org/2000/svg">
<path d="M17.7173 23.831C17.7105 23.2038 18.2761 22.805 18.8029 23.0114C19.5851 23.3184 20.3605 23.6443 21.1397 23.9612C22.448 24.4935 23.7608 25.0119 25.0623 25.563C25.4773 25.7382 26.0049 25.8152 26.0642 26.4678C26.1067 26.9321 25.8179 27.2515 25.6324 27.6151C25.5655 27.7453 25.4918 27.8738 25.4066 27.9909C24.9497 28.6256 25.1527 28.6125 25.5625 29.0416C25.9334 29.4297 26.331 29.7884 26.7164 30.161C27.1163 30.5475 27.149 30.979 26.8168 31.4474C26.7711 31.5121 26.7347 31.5858 26.683 31.6456C26.0094 32.4251 25.7388 32.5291 24.9984 31.7348C24.6153 31.3238 24.1417 31.0241 23.7775 30.5868C23.6164 30.3927 23.4301 30.4353 23.2408 30.5966C22.8075 30.9659 22.3796 31.3459 21.8832 31.621C21.4103 31.8831 21.0941 31.8208 20.8371 31.3107C20.549 30.7383 20.3119 30.1356 20.0602 29.5435C19.6611 28.6043 19.2643 27.6642 18.8728 26.7217C18.5117 25.8529 18.1583 24.9807 17.8048 24.1095C17.7599 23.9989 17.7333 23.8802 17.7189 23.831H17.7173Z" fill="#FAD806"/>
<path d="M10.5351 22.3965C10.5494 22.659 10.463 22.91 10.3608 23.1641C10.0604 23.9133 9.78465 24.6717 9.48827 25.4224C9.03815 26.5643 8.58169 27.7039 8.12206 28.8411C8.02221 29.089 7.95485 29.3454 7.82171 29.5864C7.52137 30.1277 6.98725 30.2917 6.4246 29.9576C4.75566 28.9658 3.33557 27.7139 2.22136 26.1439C2.06841 25.9283 1.98837 25.6827 1.94558 25.4363C1.87743 25.0467 2.12547 24.7818 2.69446 24.5308C4.36181 23.7955 6.0252 23.0517 7.69175 22.3141C8.24251 22.07 8.78773 21.8136 9.35038 21.6003C9.98356 21.3601 10.6231 21.6843 10.5351 22.3972V22.3965Z" fill="#FAD806"/>
<path d="M13.0161 31.5444C12.2595 31.6254 11.4422 31.4528 10.6257 31.3233C9.90134 31.209 9.67957 30.81 9.91823 30.1226C10.1868 29.3496 10.4853 28.5872 10.7769 27.8225C11.2128 26.6823 11.6532 25.5437 12.0937 24.405C12.2288 24.056 12.3692 23.7085 12.5081 23.3609C12.6362 23.0399 12.914 22.9529 13.221 22.9567C13.541 22.9612 13.785 23.1293 13.9154 23.4147C14.481 24.6518 15.0074 25.9063 15.6044 27.1275C16.0303 27.9989 16.3733 28.9067 16.823 29.7668C17.1921 30.4731 16.9803 30.9039 16.2244 31.128C15.2008 31.4324 14.1618 31.5702 13.0161 31.5444Z" fill="#FAD806"/>
<path d="M10.5413 15.6967C10.5389 16.2776 10.1466 16.6211 9.614 16.4605C8.9804 16.2696 8.36403 16.0179 7.74374 15.7813C6.5995 15.3451 5.45996 14.8952 4.31493 14.4613C3.73067 14.24 3.14406 14.0147 2.57468 13.7646C1.9168 13.4753 1.77504 13.0614 2.1079 12.4709C2.94356 10.9911 4.01027 9.72625 5.33621 8.6843C5.60328 8.47416 5.85155 8.24404 6.14368 8.06425C6.66529 7.74384 7.20569 7.87089 7.45396 8.42781C8.28806 10.2992 9.10963 12.1761 9.93668 14.0506C10.0917 14.4022 10.2523 14.7506 10.4066 15.1022C10.492 15.2979 10.5554 15.5001 10.5413 15.6967Z" fill="#FAD806"/>
<path d="M12.9203 15.0643C12.557 15.0817 12.3476 14.8644 12.2083 14.5796C11.8912 13.9345 11.5841 13.2848 11.2854 12.6313C10.6081 11.1509 9.96462 9.65536 9.25264 8.19163C8.90088 7.46772 9.23186 7.0255 9.84223 6.86951C11.2046 6.52194 12.5847 6.39397 13.9894 6.48483C14.502 6.51815 15.0023 6.62416 15.5088 6.68853C16.1076 6.76501 16.4263 7.25494 16.22 7.81075C15.9044 8.66036 15.5681 9.5024 15.2463 10.3497C14.7245 11.7264 14.2049 13.1045 13.6892 14.4835C13.563 14.8212 13.2543 15.065 12.9203 15.065V15.0643Z" fill="#FAD806"/>
<path d="M15.5654 14.9498C15.6842 14.4476 15.9162 13.9062 16.1232 13.3585C16.6537 11.9523 17.1987 10.5516 17.7404 9.14936C17.9379 8.63774 18.1321 8.12455 18.3456 7.6192C18.4997 7.25432 18.9828 7.07149 19.3584 7.23313C19.6385 7.35319 19.9291 7.47247 20.1723 7.64902C20.9949 8.24617 21.8344 8.82763 22.5423 9.56132C23.0832 10.1216 23.5664 10.7274 23.9901 11.3763C24.3425 11.917 24.1804 12.4051 23.576 12.6734C22.3657 13.2117 21.1498 13.7406 19.9475 14.2954C18.848 14.8031 17.7324 15.2739 16.6056 15.7188C16.063 15.9338 15.5662 15.5878 15.567 14.9498H15.5654Z" fill="#FAD806"/>
<path d="M0.513679 18.6393C0.495415 17.6933 0.536509 16.7609 0.716866 15.8243C0.838627 15.1945 1.38427 14.914 1.90251 15.1462C3.16805 15.7124 4.42827 16.2956 5.71208 16.8067C6.67703 17.1907 7.63133 17.6026 8.59019 18.0027C8.9159 18.1384 9.10006 18.4198 9.10844 18.7639C9.11681 19.1301 8.92199 19.4157 8.5978 19.5793C6.48983 20.6431 4.38566 21.7154 2.27768 22.7783C2.11787 22.8588 1.94208 22.9105 1.76857 22.941C1.40329 23.0046 1.12629 22.8792 0.9855 22.4587C0.732848 21.7027 0.593584 20.9169 0.52205 20.121C0.477912 19.6319 0.513679 19.1335 0.513679 18.6393Z" fill="#FAD806"/>
<path d="M25.6087 18.6419C25.6079 20.214 25.4572 20.0871 25.3401 20.8002C25.1733 21.3597 24.8358 21.6949 24.1257 21.4291C22.9756 20.9979 21.7933 20.6403 20.6386 20.214C19.5918 19.8276 18.5212 19.4967 17.4614 19.1391C17.1851 19.0458 17.0275 18.8628 17.0053 18.5901C16.9824 18.3068 17.0229 18.0473 17.3451 17.9106C18.1279 17.5783 18.9115 17.2487 19.6958 16.9191C20.8253 16.4444 21.9486 15.9585 23.0881 15.5042C23.3666 15.3934 23.636 15.2637 23.9191 15.1613C24.5695 14.9271 24.9774 15.1206 25.1733 15.751C25.4671 16.6983 25.4748 17.6799 25.6079 18.6426L25.6087 18.6419Z" fill="#FAD806"/>
<path d="M27.0415 0.940009C27.0549 4.15213 24.8947 6.66365 22.3313 6.44302C22.1689 6.42861 22.0447 6.398 22.032 6.11884C21.9317 3.86306 22.5847 2.08546 24.0842 0.85356C24.9003 0.183581 25.8089 -0.0505516 26.7725 0.00888203C26.9688 0.0205887 27.0528 0.106137 27.0429 0.355578C27.0352 0.550088 27.0415 0.745499 27.0408 0.940009H27.0415Z" fill="#3FB34E"/>
<path d="M89.7107 8.64917C90.8873 8.64917 91.7977 9.02049 92.442 9.76312C93.0956 10.4965 93.4224 11.694 93.4224 13.3556V16.4886H89.7107V13.3974C89.7107 12.8033 89.6827 12.3438 89.6267 12.0189C89.58 11.6847 89.4493 11.4108 89.2345 11.1973C89.0197 10.9745 88.6742 10.8631 88.198 10.8631C87.6844 10.8631 87.3062 10.9653 87.0635 11.1695C86.83 11.3644 86.6853 11.629 86.6293 11.9632C86.5732 12.2881 86.5452 12.7522 86.5452 13.3556V16.4886H82.8335V8.89981H86.5452V9.80489C87.2456 9.03441 88.3007 8.64917 89.7107 8.64917Z" fill="white"/>
<path d="M76.9985 8.57947C78.0443 8.57947 78.9828 8.75584 79.8138 9.10859C80.6449 9.46134 81.2985 9.95334 81.7747 10.5846C82.251 11.2065 82.4891 11.9074 82.4891 12.6872C82.4891 13.4576 82.251 14.1585 81.7747 14.7897C81.2985 15.4117 80.6402 15.899 79.7998 16.2518C78.9688 16.6045 78.035 16.7809 76.9985 16.7809C75.9994 16.7809 75.0609 16.6045 74.1832 16.2518C73.3055 15.8898 72.6051 15.3978 72.0822 14.7758C71.5593 14.1446 71.2979 13.4484 71.2979 12.6872C71.2979 11.9167 71.5593 11.2205 72.0822 10.5985C72.6051 9.96726 73.3008 9.47527 74.1692 9.12252C75.0469 8.76048 75.99 8.57947 76.9985 8.57947ZM76.9985 14.5391C77.316 14.5391 77.6101 14.4648 77.8809 14.3163C78.161 14.1678 78.3852 13.9543 78.5532 13.6758C78.7213 13.3973 78.8054 13.0678 78.8054 12.6872C78.8054 12.3066 78.7213 11.977 78.5532 11.6985C78.3852 11.42 78.161 11.2065 77.8809 11.058C77.6101 10.9095 77.316 10.8352 76.9985 10.8352C76.6904 10.8352 76.3822 10.9095 76.0741 11.058C75.7753 11.2065 75.5278 11.4247 75.3317 11.7124C75.145 11.9909 75.0516 12.3158 75.0516 12.6872C75.0516 13.0585 75.145 13.388 75.3317 13.6758C75.5278 13.9543 75.7753 14.1678 76.0741 14.3163C76.3822 14.4648 76.6904 14.5391 76.9985 14.5391Z" fill="white"/>
<path d="M67.7957 8.64917C68.5521 8.64917 69.159 8.80234 69.6166 9.10867C70.0741 9.41501 70.4103 9.91165 70.625 10.5986C70.8398 11.2762 70.9472 12.1952 70.9472 13.3556V16.4886H67.2355V13.3974C67.2355 12.8126 67.2121 12.3531 67.1654 12.0189C67.1187 11.6754 67.002 11.3969 66.8153 11.1834C66.6285 10.9606 66.3297 10.8492 65.9188 10.8492C65.536 10.8492 65.2512 10.9653 65.0644 11.1973C64.8777 11.4201 64.7563 11.7079 64.7003 12.0606C64.6536 12.4041 64.6302 12.8358 64.6302 13.3556V16.4886H60.9185V13.3974C60.9185 12.8126 60.8952 12.3531 60.8485 12.0189C60.8018 11.6754 60.6851 11.3969 60.4983 11.1834C60.3116 10.9606 60.0128 10.8492 59.6019 10.8492C59.219 10.8492 58.9343 10.9653 58.7475 11.1973C58.5607 11.4201 58.4394 11.7079 58.3833 12.0606C58.3366 12.4041 58.3133 12.8358 58.3133 13.3556V16.4886H54.6016V8.89981H58.0052L58.1872 9.70742C58.5141 9.33611 58.9436 9.0669 59.4758 8.89981C60.0174 8.73272 60.6851 8.64917 61.4788 8.64917C62.1604 8.64917 62.716 8.77449 63.1455 9.02513C63.5844 9.26648 63.9206 9.65637 64.154 10.1948C64.4622 9.64708 64.9057 9.25256 65.4846 9.0112C66.0729 8.76985 66.8433 8.64917 67.7957 8.64917Z" fill="white"/>
<path d="M54.2134 13.0771H46.93C46.9954 13.6062 47.1822 14.0332 47.4903 14.3581C47.8078 14.683 48.2373 14.8455 48.7789 14.8455C49.2084 14.8455 49.6053 14.748 49.9695 14.5531C50.3336 14.3581 50.5157 13.9822 50.5157 13.4252H54.2134C54.2134 14.6134 53.7419 15.4674 52.7988 15.9873C51.865 16.5071 50.5251 16.767 48.7789 16.767C47.7144 16.767 46.7526 16.5953 45.8936 16.2518C45.0345 15.9084 44.3575 15.4256 43.8626 14.8037C43.3771 14.1725 43.1343 13.453 43.1343 12.6454C43.1343 11.8285 43.3817 11.1091 43.8766 10.4871C44.3715 9.8559 45.0485 9.37319 45.9076 9.03901C46.7666 8.69554 47.7238 8.5238 48.7789 8.5238C49.8527 8.5238 50.7959 8.6909 51.6082 9.02508C52.4299 9.35927 53.0649 9.83269 53.5131 10.4454C53.9707 11.0488 54.2041 11.7589 54.2134 12.5758V13.0771ZM48.7789 10.3757C48.228 10.3757 47.8125 10.4918 47.5323 10.7239C47.2615 10.9466 47.0795 11.2715 46.9861 11.6986H50.4457C50.371 11.2715 50.2029 10.9466 49.9415 10.7239C49.6893 10.4918 49.3018 10.3757 48.7789 10.3757Z" fill="white"/>
<path d="M36.549 6.18445V13.4947H42.7819V16.4885H32.5571V6.18445H36.549Z" fill="white"/>
<path d="M92.7722 25.6943C92.7722 24.0677 92.4516 22.9732 91.8831 22.3316L91.8802 22.3282C91.3159 21.674 90.5123 21.3314 89.4218 21.3314C88.0838 21.3314 87.1407 21.6979 86.5283 22.3756L85.9621 23.0023V21.5812H82.9368V28.4901H85.9621V25.6943C85.9621 25.0874 85.9898 24.6033 86.05 24.2524C86.1168 23.8535 86.2942 23.5175 86.5913 23.2679C86.9171 22.9928 87.3831 22.8865 87.9238 22.8865C88.4345 22.8865 88.8798 23.0053 89.1799 23.3147C89.4461 23.5809 89.6027 23.918 89.6588 24.3079C89.7189 24.6586 89.7468 25.1379 89.7468 25.736V28.4901H92.7722V25.6943ZM93.4224 29.1402H89.0967V25.736C89.0967 25.1505 89.069 24.7143 89.0182 24.4177L89.0165 24.4076C88.9788 24.1362 88.8772 23.9311 88.7204 23.7744L88.7179 23.772L88.7155 23.7695C88.5903 23.6388 88.3534 23.5367 87.9238 23.5367C87.4479 23.5367 87.1654 23.6339 87.0104 23.765L87.0095 23.7657C86.8447 23.9041 86.7354 24.0947 86.691 24.3608L86.6908 24.3623C86.64 24.6586 86.6123 25.0993 86.6123 25.6943V29.1402H82.2866V20.931H86.6123V21.4383C87.3415 20.925 88.2881 20.6813 89.4218 20.6813C90.6597 20.6813 91.6581 21.0774 92.3697 21.9003C93.0957 22.7197 93.4223 24.0108 93.4224 25.6943V29.1402Z" fill="white"/>
<path d="M81.9457 25.0287C81.9457 24.3233 81.7333 23.6943 81.3047 23.1312L81.3034 23.1293C80.8706 22.5522 80.2718 22.0953 79.4939 21.7632C78.7172 21.4315 77.8324 21.2622 76.8339 21.2622C75.8753 21.2622 74.9839 21.4349 74.1566 21.7782L74.1552 21.7788C73.338 22.1127 72.6954 22.5732 72.2163 23.1549L72.2149 23.1566C71.7432 23.7209 71.5139 24.3417 71.5139 25.0287C71.5139 25.705 71.7422 26.326 72.2149 26.9007C72.6939 27.4738 73.342 27.9352 74.1708 28.2791C74.9983 28.6131 75.885 28.7813 76.8339 28.7813C77.8227 28.7813 78.7031 28.6121 79.4802 28.2803L79.4814 28.2799C80.2698 27.947 80.8727 27.4936 81.3047 26.9261C81.7342 26.3526 81.9457 25.7233 81.9457 25.0287ZM78.298 25.0287C78.298 24.6983 78.2258 24.4299 78.0946 24.2112C77.9575 23.9828 77.7785 23.812 77.5547 23.6927L77.5526 23.6916L77.5507 23.6905C77.3319 23.5699 77.0948 23.509 76.8339 23.509C76.5835 23.509 76.3269 23.5692 76.0614 23.6977C75.8188 23.8195 75.6164 23.9982 75.4525 24.2402C75.3079 24.458 75.2309 24.7167 75.2309 25.0287C75.2309 25.3393 75.3073 25.6036 75.4533 25.8321C75.6158 26.0626 75.8172 26.2367 76.0601 26.3589C76.326 26.4878 76.5831 26.5483 76.8339 26.5483C77.0948 26.5483 77.3319 26.4874 77.5507 26.3667L77.5526 26.3656L77.5547 26.3646C77.7785 26.2452 77.9575 26.0745 78.0946 25.8461C78.2258 25.6273 78.298 25.3591 78.298 25.0287ZM78.9481 25.0287C78.9481 25.4565 78.8536 25.8446 78.652 26.1807C78.4562 26.507 78.1914 26.7618 77.8605 26.9383L77.8603 26.9381C77.5439 27.1118 77.2 27.1984 76.8339 27.1984C76.4743 27.1984 76.1209 27.1108 75.7765 26.9438L75.7731 26.9421C75.4277 26.7694 75.1415 26.5205 74.9171 26.1999L74.9135 26.1948L74.9101 26.1896C74.6884 25.846 74.5808 25.4555 74.5808 25.0287C74.5808 24.602 74.6884 24.214 74.9128 23.8774L74.9141 23.8755C75.138 23.5449 75.425 23.2892 75.7731 23.1151L75.7765 23.1134C76.1209 22.9464 76.4743 22.8588 76.8339 22.8588C77.2016 22.8588 77.5472 22.946 77.8647 23.1212H77.8645C78.1936 23.2976 78.457 23.5515 78.652 23.8766C78.8537 24.2126 78.9481 24.6009 78.9481 25.0287ZM82.5959 25.0287C82.5959 25.8683 82.3361 26.6344 81.8234 27.318L81.8222 27.3199C81.3112 27.9911 80.6107 28.5084 79.7352 28.8782L79.7354 28.8784C78.8666 29.2493 77.8976 29.4314 76.8339 29.4314C75.8051 29.4314 74.8341 29.2486 73.924 28.8807L73.9213 28.8797C73.0118 28.5023 72.2726 27.9835 71.716 27.3176L71.7146 27.3159C71.1527 26.6336 70.8638 25.8681 70.8638 25.0287C70.8638 24.1809 71.1521 23.4144 71.716 22.7397C72.2721 22.0651 73.0064 21.5462 73.9075 21.1778L74.0792 21.109C74.9409 20.7769 75.8601 20.6121 76.8339 20.6121C77.9065 20.6121 78.8802 20.794 79.7494 21.1651C80.6166 21.5353 81.3117 22.0578 81.8219 22.7373C82.3365 23.4133 82.5959 24.1807 82.5959 25.0287Z" fill="white"/>
<path d="M70.5166 25.6943C70.5166 24.5536 70.4111 23.6757 70.2127 23.0459L70.2123 23.0446C70.0147 22.4089 69.7173 21.9862 69.3424 21.7337C68.9596 21.4759 68.4286 21.3314 67.7211 21.3314C66.8022 21.3314 66.0865 21.4489 65.5579 21.6667L65.5582 21.6669C65.0522 21.879 64.6685 22.2222 64.3986 22.7047L64.0771 23.2795L63.8164 22.6747C63.6085 22.1924 63.3198 21.8651 62.9588 21.6654L62.9516 21.6612C62.5913 21.4497 62.1033 21.3314 61.4657 21.3314C60.7012 21.3314 60.0752 21.4125 59.58 21.5659C59.1026 21.7167 58.7306 21.9549 58.4509 22.2745L58.0291 22.7566L57.7657 21.5812H54.9807V28.4901H58.0061V25.6943C58.0061 25.1684 58.0294 24.7228 58.0782 24.361L58.0789 24.3574L58.0793 24.3538C58.1379 23.9826 58.2639 23.6562 58.4691 23.3892L58.5113 23.3365C58.7744 23.011 59.1617 22.8728 59.6071 22.8728C60.0693 22.8728 60.4756 22.9999 60.7445 23.3225C60.9767 23.5918 61.1109 23.9304 61.1635 24.3183L61.1809 24.4569C61.2183 24.7934 61.2359 25.2213 61.2359 25.736V28.4901H64.2614V25.6943C64.2614 25.1684 64.2847 24.7228 64.3336 24.361L64.334 24.3574L64.3347 24.3538C64.3933 23.9826 64.5193 23.6562 64.7245 23.3892L64.7666 23.3365C65.0298 23.011 65.4171 22.8728 65.8625 22.8728C66.3247 22.8728 66.7309 22.9999 66.9998 23.3225C67.232 23.5918 67.3663 23.9304 67.4189 24.3183L67.436 24.4569C67.4734 24.7934 67.4912 25.2213 67.4912 25.736V28.4901H70.5166V25.6943ZM71.1668 29.1402H66.8411V25.736C66.8411 25.1593 66.8181 24.7187 66.7749 24.4076L66.7746 24.4065C66.735 24.1131 66.6396 23.8991 66.5048 23.7441L66.5025 23.7413L66.5004 23.7388C66.3994 23.6177 66.2139 23.5229 65.8625 23.5229C65.552 23.5229 65.3769 23.6145 65.2703 23.7477L65.2661 23.7528C65.127 23.9197 65.0258 24.147 64.9772 24.4522C64.934 24.7741 64.9116 25.1869 64.9116 25.6943V29.1402H60.5857V25.736C60.5857 25.1593 60.5627 24.7187 60.5195 24.4076V24.4065C60.4798 24.113 60.3842 23.8991 60.2494 23.7441L60.2473 23.7413L60.245 23.7388C60.144 23.6177 59.9585 23.5229 59.6071 23.5229C59.2966 23.5229 59.1215 23.6144 59.015 23.7477L59.0107 23.7528C58.8716 23.9197 58.7707 24.147 58.722 24.4522C58.6788 24.7741 58.6562 25.1869 58.6562 25.6943V29.1402H54.3306V20.931H58.2863L58.4004 21.4406C58.6859 21.2271 59.0151 21.0627 59.3845 20.946L59.386 20.9456C59.9631 20.7665 60.6591 20.6813 61.4657 20.6813C62.1781 20.6813 62.7904 20.8127 63.2807 21.1005C63.6322 21.2965 63.9203 21.5732 64.1486 21.9217C64.4562 21.5479 64.843 21.2618 65.3067 21.0673L65.3084 21.0665C65.9448 20.8038 66.7545 20.6813 67.7211 20.6813C68.5114 20.6813 69.1823 20.8421 69.7056 21.1945C70.2369 21.5523 70.6055 22.1189 70.8332 22.8516C71.0599 23.5717 71.1668 24.5242 71.1668 25.6943V29.1402Z" fill="white"/>
<path d="M47.4533 25.7422C47.5358 26.0386 47.6697 26.2781 47.8495 26.4691C48.0911 26.7163 48.4251 26.8535 48.8897 26.8535C49.2634 26.8535 49.6031 26.7686 49.9145 26.601C50.133 26.4833 50.2844 26.2476 50.2844 25.7637V25.7422H47.4533ZM48.8897 22.4012C49.4428 22.4013 49.9182 22.5227 50.2523 22.8262H50.2525C50.2556 22.8289 50.2587 22.8317 50.2618 22.8345H50.2616C50.586 23.1169 50.7779 23.5132 50.8605 23.9881L50.9267 24.369H46.7109L46.7966 23.9748C46.9005 23.4969 47.1107 23.1021 47.4472 22.8232L47.5162 22.7693C47.8691 22.5092 48.342 22.4012 48.8897 22.4012ZM48.8897 23.0514C48.3829 23.0514 48.0589 23.1597 47.8633 23.3227L47.8624 23.3233C47.7436 23.4217 47.6425 23.5514 47.5628 23.7189H50.1117C50.0395 23.5481 49.9437 23.4178 49.8294 23.3197L49.8245 23.3157L49.8201 23.3115C49.6553 23.1589 49.3671 23.0514 48.8897 23.0514ZM54.5963 25.7637C54.5963 27.0494 54.0784 28.0169 53.0289 28.5993L53.0292 28.5995C52.0345 29.1565 50.6431 29.4177 48.8897 29.4177C47.8002 29.4177 46.8057 29.2407 45.9111 28.8809C45.0165 28.5211 44.2969 28.0091 43.7664 27.3385L43.763 27.3343C43.2381 26.6479 42.9751 25.8616 42.9751 24.987C42.9751 24.1025 43.2432 23.3143 43.7802 22.6355C44.3104 21.9559 45.0302 21.4438 45.9251 21.0931L46.0938 21.0279C46.9433 20.7121 47.8766 20.5564 48.8897 20.5564C49.986 20.5564 50.9633 20.7279 51.8146 21.08L51.9737 21.1477C52.7591 21.4957 53.386 21.9794 53.8406 22.6044H53.8404C54.3365 23.2644 54.5864 24.0389 54.5963 24.914V25.7637ZM43.6252 24.987C43.6252 25.7207 43.8425 26.367 44.2784 26.9377C44.7279 27.5049 45.3482 27.9538 46.1537 28.2778C46.9605 28.6023 47.871 28.7675 48.8897 28.7675C50.5945 28.7675 51.8569 28.5109 52.7115 28.0323L52.7128 28.0314C53.4455 27.6251 53.8553 26.9938 53.9324 26.0888H50.9136C50.8498 26.5658 50.6352 26.9513 50.2226 27.1735C49.8128 27.3941 49.3667 27.5036 48.8897 27.5036C48.2835 27.5036 47.7676 27.3179 47.3805 26.9195L47.3772 26.9161C47.0158 26.5329 46.8076 26.0388 46.7361 25.4567L46.6915 25.092H53.9462V24.9214L53.9422 24.782C53.9104 24.0916 53.7004 23.4985 53.318 22.9913L53.3163 22.989L53.3149 22.9868C52.9121 22.433 52.3354 21.9955 51.5682 21.6817L51.5672 21.6813C50.8098 21.3679 49.9196 21.2066 48.8897 21.2065C47.8807 21.2065 46.9748 21.3717 46.1677 21.6963L46.1649 21.6975C45.3606 22.0123 44.7409 22.4607 44.2917 23.037L44.2902 23.0389C43.847 23.5992 43.6253 24.2442 43.6252 24.987Z" fill="white"/>
<path d="M37.1041 18.2263V25.5081H43.2761V29.1403H32.501V18.2263H37.1041ZM33.1511 28.4901H42.6259V26.1583H36.4539V18.8765H33.1511V28.4901Z" fill="white"/>
<path d="M97.7412 6.5459H98.4842C98.6439 6.5459 98.7864 6.56814 98.9117 6.61261C99.0371 6.65507 99.1432 6.71875 99.2301 6.80366C99.3171 6.88856 99.3838 6.9947 99.4303 7.12206C99.4768 7.24942 99.5 7.39599 99.5 7.56176V7.62241C99.5 7.79223 99.4758 7.94284 99.4272 8.07425C99.3807 8.20363 99.312 8.3128 99.221 8.40175C99.1321 8.48868 99.0229 8.55539 98.8935 8.60189C98.7642 8.64636 98.6176 8.6686 98.4538 8.6686H97.7412V6.5459ZM98.4235 8.29258C98.5044 8.29258 98.5812 8.28146 98.654 8.25922C98.7268 8.23496 98.7904 8.19655 98.845 8.14399C98.9016 8.09143 98.9461 8.02269 98.9784 7.93779C99.0108 7.85288 99.027 7.74775 99.027 7.62241V7.56176C99.027 7.44451 99.0118 7.34545 98.9815 7.26459C98.9512 7.1817 98.9097 7.11499 98.8571 7.06444C98.8066 7.0139 98.746 6.97752 98.6752 6.95528C98.6065 6.93304 98.5327 6.92192 98.4538 6.92192H98.1961V8.29258H98.4235Z" fill="white"/>
<path d="M96.3019 6.92192H95.6196V6.5459H97.4391V6.92192H96.7568V8.6686H96.3019V6.92192Z" fill="white"/>
<path d="M94.3149 6.5459H94.7698V8.29258H95.7402V8.6686H94.3149V6.5459Z" fill="white"/>
</svg>
