<svg width="25" height="25" viewBox="0 0 25 25" fill="none" xmlns="http://www.w3.org/2000/svg">
<path d="M7.37391 12.7458C7.37391 15.5068 9.61991 17.7528 12.3809 17.7528C15.1419 17.7528 17.3879 15.5068 17.3879 12.7458C17.3879 9.98485 15.1419 7.73885 12.3809 7.73885C9.61991 7.73885 7.37391 9.98485 7.37391 12.7458ZM12.3809 9.73885C14.0389 9.73885 15.3879 11.0878 15.3879 12.7458C15.3879 14.4038 14.0389 15.7528 12.3809 15.7528C10.7229 15.7528 9.37391 14.4038 9.37391 12.7458C9.37391 11.0878 10.7229 9.73885 12.3809 9.73885ZM11.3789 19.7458H13.3789V22.7458H11.3789V19.7458ZM11.3789 2.74585H13.3789V5.74585H11.3789V2.74585ZM2.37891 11.7458H5.37891V13.7458H2.37891V11.7458ZM19.3789 11.7458H22.3789V13.7458H19.3789V11.7458ZM4.59991 19.1089L6.71991 16.9868L8.13491 18.4009L6.01491 20.5229L4.59991 19.1089ZM16.6209 7.08985L18.7429 4.96785L20.1569 6.38185L18.0349 8.50385L16.6209 7.08985ZM6.72291 8.50485L4.60091 6.38285L6.01591 4.96885L8.13591 7.09085L6.72291 8.50485ZM20.1569 19.1098L18.7429 20.5238L16.6209 18.4018L18.0349 16.9879L20.1569 19.1098Z" fill="white"/>
</svg>
