<svg width="24" height="24" viewBox="0 0 24 24" fill="none" xmlns="http://www.w3.org/2000/svg">
<path d="M12 1.99292C6.486 1.99392 2 6.47992 2 11.9939C2 17.5069 6.486 21.9929 12 21.9939C17.514 21.9939 22 17.5079 22 11.9939C22 6.47992 17.515 1.99392 12 1.99292ZM12 19.9939C7.589 19.9929 4 16.4039 4 11.9939C4 7.58292 7.589 3.99392 12 3.99292C16.411 3.99392 20 7.58292 20 11.9939C20 16.4049 16.411 19.9939 12 19.9939Z" fill="#17181A"/>
<path d="M13 8H11V12H7.99097L11.996 16.005L16 12H13V8Z" fill="#17181A"/>
</svg>
